<svg width="51" height="31" viewBox="0 0 51 31" fill="none" xmlns="http://www.w3.org/2000/svg">
<path d="M17.147 15L14.2734 4.81818H16.2571L18.0916 12.3004H18.1861L20.1449 4.81818H21.9496L23.9134 12.3054H24.0028L25.8374 4.81818H27.821L24.9474 15H23.1278L21.0895 7.85582H21.0099L18.9666 15H17.147ZM30.8201 10.5256V15H29.0204V4.81818H30.7804V8.66122H30.8699C31.0488 8.23035 31.3256 7.89062 31.7001 7.64205C32.0779 7.39015 32.5585 7.2642 33.1419 7.2642C33.6722 7.2642 34.1345 7.37524 34.5289 7.5973C34.9234 7.81937 35.2283 8.14418 35.4437 8.57173C35.6625 8.99929 35.7718 9.52131 35.7718 10.1378V15H33.9721V10.4162C33.9721 9.90246 33.8395 9.50308 33.5744 9.21804C33.3126 8.92969 32.9447 8.78551 32.4707 8.78551C32.1525 8.78551 31.8675 8.85511 31.6156 8.99432C31.367 9.13021 31.1715 9.32741 31.0289 9.58594C30.8897 9.84446 30.8201 10.1577 30.8201 10.5256ZM39.8038 15.1541C39.3199 15.1541 38.8841 15.0679 38.4963 14.8956C38.1118 14.7199 37.8069 14.4614 37.5815 14.12C37.3594 13.7786 37.2484 13.3577 37.2484 12.8572C37.2484 12.4264 37.3279 12.0701 37.487 11.7884C37.6461 11.5066 37.8632 11.2812 38.1383 11.1122C38.4134 10.9432 38.7233 10.8156 39.068 10.7294C39.416 10.6399 39.7756 10.5753 40.1468 10.5355C40.5943 10.4891 40.9572 10.4477 41.2356 10.4112C41.514 10.3714 41.7162 10.3118 41.8422 10.2322C41.9714 10.1494 42.036 10.0218 42.036 9.84943V9.8196C42.036 9.44508 41.925 9.15507 41.7029 8.94957C41.4809 8.74408 41.161 8.64134 40.7434 8.64134C40.3026 8.64134 39.9529 8.73745 39.6944 8.92969C39.4392 9.12192 39.2669 9.34896 39.1774 9.6108L37.497 9.37216C37.6296 8.90814 37.8483 8.52036 38.1532 8.20881C38.4582 7.89394 38.831 7.65862 39.2718 7.50284C39.7127 7.34375 40.1999 7.2642 40.7335 7.2642C41.1014 7.2642 41.4676 7.30729 41.8322 7.39347C42.1968 7.47964 42.5299 7.62216 42.8315 7.82102C43.1331 8.01657 43.3751 8.28338 43.5574 8.62145C43.743 8.95952 43.8358 9.3821 43.8358 9.8892V15H42.1056V13.951H42.046C41.9366 14.1631 41.7825 14.362 41.5836 14.5476C41.3881 14.7299 41.1412 14.8774 40.8429 14.9901C40.5479 15.0994 40.2015 15.1541 39.8038 15.1541ZM40.2711 13.8317C40.6324 13.8317 40.9456 13.7604 41.2108 13.6179C41.4759 13.4721 41.6797 13.2798 41.8223 13.0412C41.9681 12.8026 42.041 12.5424 42.041 12.2607V11.3608C41.9847 11.4072 41.8886 11.4503 41.7527 11.4901C41.6201 11.5298 41.4709 11.5646 41.3052 11.5945C41.1395 11.6243 40.9754 11.6508 40.813 11.674C40.6506 11.6972 40.5098 11.7171 40.3904 11.7337C40.122 11.7701 39.8817 11.8298 39.6696 11.9126C39.4574 11.9955 39.2901 12.1115 39.1674 12.2607C39.0448 12.4065 38.9835 12.5954 38.9835 12.8274C38.9835 13.1589 39.1045 13.4091 39.3464 13.5781C39.5884 13.7472 39.8966 13.8317 40.2711 13.8317ZM49.4586 7.36364V8.75568H45.0687V7.36364H49.4586ZM46.1525 5.53409H47.9522V12.7031C47.9522 12.9451 47.9887 13.1307 48.0616 13.2599C48.1378 13.3859 48.2373 13.4721 48.3599 13.5185C48.4825 13.5649 48.6184 13.5881 48.7676 13.5881C48.8803 13.5881 48.983 13.5798 49.0758 13.5632C49.1719 13.5466 49.2449 13.5317 49.2946 13.5185L49.5978 14.9254C49.5017 14.9586 49.3642 14.995 49.1852 15.0348C49.0095 15.0746 48.7941 15.0978 48.5389 15.1044C48.0881 15.1177 47.6821 15.0497 47.3208 14.9006C46.9596 14.7481 46.6729 14.5128 46.4608 14.1946C46.252 13.8764 46.1492 13.4787 46.1525 13.0014V5.53409Z" fill="#0C0D0D"/>
<path d="M14.0819 17.182C14.1534 17.2535 14.2015 17.3451 14.2199 17.4445C14.2383 17.5439 14.2261 17.6466 14.1849 17.739L8.52793 30.467C8.4884 30.556 8.42374 30.6315 8.34188 30.6843C8.26002 30.7371 8.16453 30.7648 8.06713 30.7641C7.96974 30.7633 7.87468 30.7342 7.79364 30.6801C7.71259 30.6261 7.64909 30.5496 7.61093 30.46L5.56993 25.694L0.802926 23.652C0.713651 23.6136 0.637501 23.55 0.58379 23.469C0.530079 23.388 0.501136 23.2931 0.500499 23.196C0.499862 23.0988 0.527561 23.0035 0.580206 22.9218C0.632851 22.8401 0.708161 22.7756 0.796926 22.736L13.5249 17.079C13.6172 17.038 13.7196 17.026 13.8189 17.0443C13.9181 17.0627 14.0105 17.1107 14.0819 17.182Z" fill="#4C5251"/>
</svg>
