<svg width="46" height="41" viewBox="0 0 46 41" fill="none" xmlns="http://www.w3.org/2000/svg">
<path d="M4.14702 36L1.27344 25.8182H3.2571L5.09162 33.3004H5.18608L7.14489 25.8182H8.94957L10.9134 33.3054H11.0028L12.8374 25.8182H14.821L11.9474 36H10.1278L8.08949 28.8558H8.00994L5.96662 36H4.14702ZM17.8201 31.5256V36H16.0204V25.8182H17.7804V29.6612H17.8699C18.0488 29.2304 18.3256 28.8906 18.7001 28.642C19.0779 28.3902 19.5585 28.2642 20.1419 28.2642C20.6722 28.2642 21.1345 28.3752 21.5289 28.5973C21.9234 28.8194 22.2283 29.1442 22.4437 29.5717C22.6625 29.9993 22.7718 30.5213 22.7718 31.1378V36H20.9721V31.4162C20.9721 30.9025 20.8395 30.5031 20.5744 30.218C20.3126 29.9297 19.9447 29.7855 19.4707 29.7855C19.1525 29.7855 18.8675 29.8551 18.6156 29.9943C18.367 30.1302 18.1715 30.3274 18.0289 30.5859C17.8897 30.8445 17.8201 31.1577 17.8201 31.5256ZM27.987 36.1491C27.2214 36.1491 26.5602 35.9901 26.0034 35.6719C25.4499 35.3504 25.024 34.8963 24.7257 34.3097C24.4274 33.7197 24.2782 33.0253 24.2782 32.2266C24.2782 31.4411 24.4274 30.7517 24.7257 30.1584C25.0273 29.5618 25.4482 29.0978 25.9885 28.7663C26.5287 28.4316 27.1634 28.2642 27.8926 28.2642C28.3632 28.2642 28.8074 28.3404 29.225 28.4929C29.6459 28.642 30.0171 28.8741 30.3386 29.1889C30.6634 29.5038 30.9186 29.9048 31.1042 30.392C31.2898 30.8759 31.3826 31.4527 31.3826 32.1222V32.674H25.1234V31.4609H29.6575C29.6542 31.1162 29.5796 30.8097 29.4338 30.5412C29.2879 30.2694 29.0841 30.0556 28.8223 29.8999C28.5637 29.7441 28.2621 29.6662 27.9174 29.6662C27.5495 29.6662 27.2264 29.7557 26.948 29.9347C26.6696 30.1103 26.4525 30.3423 26.2967 30.6307C26.1442 30.9157 26.0663 31.2289 26.063 31.5703V32.6293C26.063 33.0734 26.1442 33.4545 26.3066 33.7727C26.469 34.0876 26.6961 34.3295 26.9877 34.4986C27.2794 34.6643 27.6208 34.7472 28.0119 34.7472C28.2737 34.7472 28.5107 34.7107 28.7228 34.6378C28.935 34.5616 29.1189 34.4505 29.2747 34.3047C29.4305 34.1589 29.5481 33.9782 29.6277 33.7628L31.3081 33.9517C31.202 34.3958 30.9998 34.7836 30.7015 35.1151C30.4065 35.4432 30.0287 35.6984 29.568 35.8807C29.1073 36.0597 28.5803 36.1491 27.987 36.1491ZM32.9052 36V28.3636H34.6502V29.6364H34.7298C34.869 29.1955 35.1076 28.8558 35.4457 28.6172C35.7871 28.3752 36.1765 28.2543 36.614 28.2543C36.7134 28.2543 36.8245 28.2592 36.9471 28.2692C37.073 28.2758 37.1774 28.2874 37.2603 28.304V29.9595C37.1841 29.933 37.0631 29.9098 36.8974 29.8899C36.735 29.8667 36.5775 29.8551 36.4251 29.8551C36.0969 29.8551 35.802 29.9264 35.5401 30.0689C35.2816 30.2081 35.0778 30.402 34.9286 30.6506C34.7795 30.8991 34.7049 31.1858 34.7049 31.5107V36H32.9052ZM41.5222 36.1491C40.7566 36.1491 40.0953 35.9901 39.5385 35.6719C38.985 35.3504 38.5591 34.8963 38.2608 34.3097C37.9625 33.7197 37.8134 33.0253 37.8134 32.2266C37.8134 31.4411 37.9625 30.7517 38.2608 30.1584C38.5624 29.5618 38.9834 29.0978 39.5236 28.7663C40.0639 28.4316 40.6986 28.2642 41.4277 28.2642C41.8984 28.2642 42.3425 28.3404 42.7601 28.4929C43.181 28.642 43.5523 28.8741 43.8738 29.1889C44.1986 29.5038 44.4538 29.9048 44.6394 30.392C44.825 30.8759 44.9178 31.4527 44.9178 32.1222V32.674H38.6586V31.4609H43.1926C43.1893 31.1162 43.1148 30.8097 42.9689 30.5412C42.8231 30.2694 42.6193 30.0556 42.3574 29.8999C42.0989 29.7441 41.7973 29.6662 41.4526 29.6662C41.0847 29.6662 40.7615 29.7557 40.4831 29.9347C40.2047 30.1103 39.9876 30.3423 39.8319 30.6307C39.6794 30.9157 39.6015 31.2289 39.5982 31.5703V32.6293C39.5982 33.0734 39.6794 33.4545 39.8418 33.7727C40.0042 34.0876 40.2312 34.3295 40.5229 34.4986C40.8146 34.6643 41.156 34.7472 41.5471 34.7472C41.8089 34.7472 42.0459 34.7107 42.258 34.6378C42.4701 34.5616 42.6541 34.4505 42.8098 34.3047C42.9656 34.1589 43.0833 33.9782 43.1628 33.7628L44.8432 33.9517C44.7372 34.3958 44.535 34.7836 44.2367 35.1151C43.9417 35.4432 43.5639 35.6984 43.1032 35.8807C42.6425 36.0597 42.1155 36.1491 41.5222 36.1491Z" fill="#0C0D0D"/>
<g clip-path="url(#clip0_46_224)">
<path d="M13.6628 19.5566C13.5666 19.5878 13.4632 19.5891 13.3663 19.5603C13.2693 19.5316 13.1834 19.4741 13.1197 19.3955L4.34724 8.57665C4.28587 8.50101 4.24792 8.40911 4.23806 8.31221C4.2282 8.21531 4.24686 8.11765 4.29174 8.0312C4.33662 7.94476 4.40577 7.87331 4.49069 7.82562C4.57561 7.77794 4.67262 7.75609 4.76979 7.76277L9.94292 8.10795L13.9265 4.78757C14.0013 4.72545 14.0925 4.68647 14.189 4.67538C14.2856 4.6643 14.3833 4.68159 14.4702 4.72514C14.557 4.76869 14.6293 4.83662 14.6782 4.92061C14.7271 5.0046 14.7505 5.10102 14.7454 5.19807L14.0074 19.107C14.0021 19.2078 13.9663 19.3046 13.9049 19.3847C13.8434 19.4648 13.7587 19.5253 13.6628 19.5566Z" fill="#4C5251"/>
</g>
<defs>
<clipPath id="clip0_46_224">
<rect width="16" height="16" fill="white" transform="translate(22 8) rotate(117)"/>
</clipPath>
</defs>
</svg>
