<svg width="32" height="40" viewBox="0 0 32 40" fill="none" xmlns="http://www.w3.org/2000/svg">
<path d="M3.14702 35L0.273438 24.8182H2.2571L4.09162 32.3004H4.18608L6.14489 24.8182H7.94957L9.91335 32.3054H10.0028L11.8374 24.8182H13.821L10.9474 35H9.12784L7.08949 27.8558H7.00994L4.96662 35H3.14702ZM16.8201 30.5256V35H15.0204V24.8182H16.7804V28.6612H16.8699C17.0488 28.2304 17.3256 27.8906 17.7001 27.642C18.0779 27.3902 18.5585 27.2642 19.1419 27.2642C19.6722 27.2642 20.1345 27.3752 20.5289 27.5973C20.9234 27.8194 21.2283 28.1442 21.4437 28.5717C21.6625 28.9993 21.7718 29.5213 21.7718 30.1378V35H19.9721V30.4162C19.9721 29.9025 19.8395 29.5031 19.5744 29.218C19.3126 28.9297 18.9447 28.7855 18.4707 28.7855C18.1525 28.7855 17.8675 28.8551 17.6156 28.9943C17.367 29.1302 17.1715 29.3274 17.0289 29.5859C16.8897 29.8445 16.8201 30.1577 16.8201 30.5256ZM26.9373 35.1491C26.1916 35.1491 25.5453 34.9851 24.9984 34.657C24.4515 34.3288 24.0273 33.8698 23.7257 33.2798C23.4274 32.6899 23.2782 32.0005 23.2782 31.2116C23.2782 30.4228 23.4274 29.7318 23.7257 29.1385C24.0273 28.5452 24.4515 28.0845 24.9984 27.7564C25.5453 27.4283 26.1916 27.2642 26.9373 27.2642C27.6831 27.2642 28.3294 27.4283 28.8762 27.7564C29.4231 28.0845 29.8457 28.5452 30.144 29.1385C30.4456 29.7318 30.5964 30.4228 30.5964 31.2116C30.5964 32.0005 30.4456 32.6899 30.144 33.2798C29.8457 33.8698 29.4231 34.3288 28.8762 34.657C28.3294 34.9851 27.6831 35.1491 26.9373 35.1491ZM26.9473 33.7074C27.3516 33.7074 27.6897 33.5964 27.9615 33.3743C28.2333 33.1489 28.4354 32.8473 28.568 32.4695C28.7039 32.0916 28.7718 31.6707 28.7718 31.2067C28.7718 30.7393 28.7039 30.3168 28.568 29.9389C28.4354 29.5578 28.2333 29.2545 27.9615 29.0291C27.6897 28.8037 27.3516 28.6911 26.9473 28.6911C26.533 28.6911 26.1883 28.8037 25.9132 29.0291C25.6414 29.2545 25.4376 29.5578 25.3017 29.9389C25.1691 30.3168 25.1028 30.7393 25.1028 31.2067C25.1028 31.6707 25.1691 32.0916 25.3017 32.4695C25.4376 32.8473 25.6414 33.1489 25.9132 33.3743C26.1883 33.5964 26.533 33.7074 26.9473 33.7074Z" fill="#0C0D0D"/>
<g clip-path="url(#clip0_46_223)">
<path d="M14.4995 20.4146C14.3984 20.4145 14.2997 20.3838 14.2163 20.3265C14.133 20.2692 14.069 20.188 14.0328 20.0935L9.03288 7.09337C8.99789 7.00248 8.9902 6.90334 9.01076 6.80814C9.03133 6.71294 9.07925 6.62582 9.14865 6.55747C9.21804 6.48913 9.30589 6.44255 9.40139 6.42344C9.49689 6.40433 9.5959 6.41353 9.68625 6.4499L14.4995 8.37677L19.3142 6.4499C19.4045 6.41393 19.5033 6.40505 19.5986 6.42434C19.6938 6.44363 19.7814 6.49026 19.8505 6.55852C19.9197 6.62679 19.9675 6.71374 19.988 6.80873C20.0085 6.90371 20.001 7.00263 19.9662 7.09337L14.9662 20.0935C14.9299 20.1877 14.866 20.2687 14.7829 20.3259C14.6997 20.3831 14.6005 20.4144 14.4995 20.4146Z" fill="#4C5251"/>
</g>
<defs>
<clipPath id="clip0_46_223">
<rect width="16" height="16" fill="white" transform="translate(26 12) rotate(135)"/>
</clipPath>
</defs>
</svg>
