<svg width="33" height="42" viewBox="0 0 33 42" fill="none" xmlns="http://www.w3.org/2000/svg">
<path d="M5.14702 37L2.27344 26.8182H4.2571L6.09162 34.3004H6.18608L8.14489 26.8182H9.94957L11.9134 34.3054H12.0028L13.8374 26.8182H15.821L12.9474 37H11.1278L9.08949 29.8558H9.00994L6.96662 37H5.14702ZM18.8201 32.5256V37H17.0204V26.8182H18.7804V30.6612H18.8699C19.0488 30.2304 19.3256 29.8906 19.7001 29.642C20.0779 29.3902 20.5585 29.2642 21.1419 29.2642C21.6722 29.2642 22.1345 29.3752 22.5289 29.5973C22.9234 29.8194 23.2283 30.1442 23.4437 30.5717C23.6625 30.9993 23.7718 31.5213 23.7718 32.1378V37H21.9721V32.4162C21.9721 31.9025 21.8395 31.5031 21.5744 31.218C21.3126 30.9297 20.9447 30.7855 20.4707 30.7855C20.1525 30.7855 19.8675 30.8551 19.6156 30.9943C19.367 31.1302 19.1715 31.3274 19.0289 31.5859C18.8897 31.8445 18.8201 32.1577 18.8201 32.5256ZM26.4515 39.8636C26.2063 39.8636 25.9792 39.8438 25.7704 39.804C25.5649 39.7675 25.4009 39.7244 25.2782 39.6747L25.6958 38.2727C25.9577 38.349 26.1913 38.3854 26.3968 38.3821C26.6023 38.3788 26.783 38.3142 26.9387 38.1882C27.0978 38.0656 27.2321 37.8601 27.3414 37.5717L27.4956 37.1591L24.7264 29.3636H26.6355L28.3954 35.1307H28.475L30.2399 29.3636H32.1539L29.0964 37.9247C28.9539 38.3291 28.765 38.6754 28.5297 38.9638C28.2943 39.2554 28.006 39.4775 27.6646 39.63C27.3265 39.7857 26.9222 39.8636 26.4515 39.8636Z" fill="#0C0D0D"/>
<g clip-path="url(#clip0_46_222)">
<path d="M11.4995 20.4146C11.3984 20.4145 11.2997 20.3838 11.2163 20.3265C11.133 20.2692 11.069 20.188 11.0328 20.0935L6.03288 7.09337C5.99789 7.00248 5.9902 6.90334 6.01076 6.80814C6.03133 6.71294 6.07925 6.62582 6.14865 6.55747C6.21804 6.48913 6.30589 6.44255 6.40139 6.42344C6.49689 6.40433 6.5959 6.41353 6.68625 6.4499L11.4995 8.37677L16.3142 6.4499C16.4045 6.41393 16.5033 6.40505 16.5986 6.42434C16.6938 6.44363 16.7814 6.49026 16.8505 6.55852C16.9197 6.62679 16.9675 6.71374 16.988 6.80873C17.0085 6.90371 17.001 7.00263 16.9662 7.09337L11.9662 20.0935C11.9299 20.1877 11.866 20.2687 11.7829 20.3259C11.6997 20.3831 11.6005 20.4144 11.4995 20.4146Z" fill="#4C5251"/>
</g>
<defs>
<clipPath id="clip0_46_222">
<rect width="16" height="16" fill="white" transform="translate(23 12) rotate(135)"/>
</clipPath>
</defs>
</svg>
