<svg width="117" height="61" viewBox="0 0 117 61" fill="none" xmlns="http://www.w3.org/2000/svg">
<path d="M117 52.4999L102.604 42.8687L101.461 60.1515L117 52.4999ZM4.97852 6V7.5C18.5268 7.5 28.4894 9.9122 36.5246 13.5853C44.5737 17.2648 50.769 22.2441 56.7759 27.5177C68.7888 38.064 80.0152 49.8032 103.325 53.0947L103.534 51.6094L103.744 50.1242C81.4617 46.9777 70.8848 35.9121 58.7551 25.2632C52.6907 19.9392 46.2297 14.7232 37.7719 10.8569C29.3001 6.98422 18.9048 4.5 4.97852 4.5V6Z" fill="#DC511A"/>
<path d="M4.97852 1.5C6.64994 1.5 8.45703 3.24058 8.45703 6C8.45703 8.75942 6.64994 10.5 4.97852 10.5C3.30715 10.4999 1.5 8.7593 1.5 6C1.5 3.2407 3.30715 1.50014 4.97852 1.5Z" fill="white" stroke="#DC511A" stroke-width="3"/>
</svg>
