<svg width="230" height="95" viewBox="0 0 230 95" fill="none" xmlns="http://www.w3.org/2000/svg">
<path d="M230 86.75L215.237 77.6914L214.774 95.0057L230 86.75ZM6 6V7.5C34.6742 7.5 55.4568 12.1305 72.1479 19.1241C88.8526 26.1234 101.536 35.5189 114.031 45.1936C126.504 54.8504 138.828 64.821 154.658 72.7104C170.52 80.6165 189.86 86.4182 216.437 87.8868L216.52 86.3891L216.603 84.8914C190.41 83.444 171.472 77.739 155.996 70.0254C140.486 62.2951 128.411 52.5329 115.868 42.8215C103.348 33.1279 90.4012 23.5196 73.3072 16.3572C56.1997 9.18911 35.0152 4.5 6 4.5V6Z" fill="#DC511A"/>
<circle cx="6" cy="6" r="4.5" fill="white" stroke="#DC511A" stroke-width="3"/>
</svg>
