<svg width="476" height="227" viewBox="0 0 476 227" fill="none" xmlns="http://www.w3.org/2000/svg">
<path d="M476 218.5L461.132 209.616L460.872 226.934L476 218.5ZM6 6V7.5C68.6945 7.5 113.35 20.2606 148.847 39.458C184.375 58.6722 210.812 84.3748 237.07 110.458C263.295 136.51 289.356 162.961 323.997 183.321C358.678 203.704 401.896 217.954 462.463 219.797L462.508 218.298L462.554 216.798C402.455 214.969 359.734 200.845 325.517 180.734C291.259 160.599 265.462 134.435 239.184 108.33C212.938 82.2576 186.226 56.263 150.274 36.8192C114.29 17.3584 69.1345 4.5 6 4.5V6Z" fill="#DC511A"/>
<circle cx="6" cy="6" r="4.5" fill="white" stroke="#DC511A" stroke-width="3"/>
</svg>
