<svg width="224" height="30" viewBox="0 0 224 30" fill="none" xmlns="http://www.w3.org/2000/svg">
<path d="M222.708 15.7071C223.098 15.3166 223.098 14.6834 222.708 14.2929L216.344 7.92893C215.953 7.53841 215.32 7.53841 214.93 7.92893C214.539 8.31946 214.539 8.95262 214.93 9.34315L220.586 15L214.93 20.6569C214.539 21.0474 214.539 21.6805 214.93 22.0711C215.32 22.4616 215.953 22.4616 216.344 22.0711L222.708 15.7071ZM0 16H1.98215V14H0L0 16ZM5.94644 16H9.91074V14H5.94644V16ZM13.875 16H17.8393V14H13.875V16ZM21.8036 16H25.7679V14H21.8036V16ZM29.7322 16H33.6965V14H29.7322V16ZM37.6608 16H41.6251V14H37.6608V16ZM45.5894 16H49.5537V14H45.5894V16ZM53.518 16H57.4823V14H53.518V16ZM61.4466 16H65.4109V14H61.4466V16ZM69.3752 16H73.3395V14H69.3752V16ZM77.3038 16H81.2681V14H77.3038V16ZM85.2323 16H89.1966V14H85.2323V16ZM93.1609 16H97.1252V14H93.1609V16ZM101.09 16H105.054V14H101.09V16ZM109.018 16H112.982V14H109.018V16ZM116.947 16H120.911V14H116.947V16ZM124.875 16H128.84V14H124.875V16ZM132.804 16H136.768V14H132.804V16ZM140.732 16H144.697V14H140.732V16ZM148.661 16H152.625V14H148.661V16ZM156.59 16H160.554V14H156.59V16ZM164.518 16H168.483V14H164.518V16ZM172.447 16H176.411V14H172.447V16ZM180.375 16H184.34V14H180.375V16ZM188.304 16H192.268V14H188.304V16ZM196.233 16H200.197V14H196.233V16ZM204.161 16H208.125V14H204.161V16ZM212.09 16H216.054V14H212.09V16ZM220.018 16H222.001V14H220.018V16ZM223.415 16.4142C224.196 15.6332 224.196 14.3668 223.415 13.5858L210.687 0.857864C209.906 0.0768156 208.639 0.0768156 207.858 0.857864C207.077 1.63891 207.077 2.90524 207.858 3.68629L219.172 15L207.858 26.3137C207.077 27.0948 207.077 28.3611 207.858 29.1421C208.639 29.9232 209.906 29.9232 210.687 29.1421L223.415 16.4142ZM0 17H1.98215V13H0L0 17ZM5.94644 17H9.91074V13H5.94644V17ZM13.875 17H17.8393V13H13.875V17ZM21.8036 17H25.7679V13H21.8036V17ZM29.7322 17H33.6965V13H29.7322V17ZM37.6608 17H41.6251V13H37.6608V17ZM45.5894 17H49.5537V13H45.5894V17ZM53.518 17H57.4823V13H53.518V17ZM61.4466 17H65.4109V13H61.4466V17ZM69.3752 17H73.3395V13H69.3752V17ZM77.3038 17H81.2681V13H77.3038V17ZM85.2323 17H89.1966V13H85.2323V17ZM93.1609 17H97.1252V13H93.1609V17ZM101.09 17H105.054V13H101.09V17ZM109.018 17H112.982V13H109.018V17ZM116.947 17H120.911V13H116.947V17ZM124.875 17H128.84V13H124.875V17ZM132.804 17H136.768V13H132.804V17ZM140.732 17H144.697V13H140.732V17ZM148.661 17H152.625V13H148.661V17ZM156.59 17H160.554V13H156.59V17ZM164.518 17H168.483V13H164.518V17ZM172.447 17H176.411V13H172.447V17ZM180.375 17H184.34V13H180.375V17ZM188.304 17H192.268V13H188.304V17ZM196.233 17H200.197V13H196.233V17ZM204.161 17H208.125V13H204.161V17ZM212.09 17H216.054V13H212.09V17ZM220.018 17H222.001V13H220.018V17Z" fill="#ACB4B3"/>
</svg>
