<svg width="40" height="92" viewBox="0 0 40 92" fill="none" xmlns="http://www.w3.org/2000/svg">
<path d="M4.04616 88L0.351562 74.9091H2.90199L5.26065 84.5291H5.3821L7.90057 74.9091H10.2209L12.7457 84.5355H12.8608L15.2195 74.9091H17.7699L14.0753 88H11.7358L9.11506 78.8146H9.01278L6.38565 88H4.04616ZM21.6259 82.2472V88H19.312V74.9091H21.5748V79.8501H21.6898C21.9199 79.2962 22.2757 78.8594 22.7573 78.5398C23.2431 78.2159 23.861 78.054 24.611 78.054C25.2928 78.054 25.8873 78.1967 26.3944 78.4822C26.9015 78.7678 27.2935 79.1854 27.5705 79.7351C27.8517 80.2848 27.9924 80.956 27.9924 81.7486V88H25.6784V82.1065C25.6784 81.446 25.508 80.9325 25.1671 80.5661C24.8304 80.1953 24.3574 80.0099 23.748 80.0099C23.339 80.0099 22.9725 80.0994 22.6486 80.2784C22.329 80.4531 22.0776 80.7067 21.8944 81.0391C21.7154 81.3714 21.6259 81.7741 21.6259 82.2472ZM31.4377 91.6818C31.1223 91.6818 30.8304 91.6563 30.562 91.6051C30.2978 91.5582 30.0868 91.5028 29.9292 91.4389L30.4661 89.6364C30.8027 89.7344 31.1032 89.7813 31.3674 89.777C31.6316 89.7727 31.8638 89.6896 32.0641 89.5277C32.2686 89.37 32.4412 89.1058 32.5819 88.7351L32.78 88.2045L29.2196 78.1818H31.6742L33.937 85.5966H34.0392L36.3084 78.1818H38.7694L34.8382 89.1889C34.655 89.7088 34.4121 90.1541 34.1096 90.5249C33.807 90.8999 33.4363 91.1854 32.9973 91.3814C32.5627 91.5817 32.0428 91.6818 31.4377 91.6818Z" fill="#0C0D0D"/>
<path d="M15.0441 70.2908C15.4134 70.7014 16.0457 70.7348 16.4563 70.3655L23.1476 64.3467C23.5582 63.9773 23.5917 63.3451 23.2223 62.9344C22.853 62.5238 22.2207 62.4904 21.8101 62.8597L15.8623 68.2098L10.5122 62.2619C10.1429 61.8513 9.51058 61.8179 9.09996 62.1872C8.68935 62.5565 8.6559 63.1888 9.02524 63.5994L15.0441 70.2908ZM22.0115 0.848889C17.9287 27.5571 16.2157 42.6037 14.7889 69.5692L16.7861 69.6748C18.2089 42.7854 19.914 27.8051 23.9885 1.15111L22.0115 0.848889Z" fill="#4C5251"/>
</svg>
