<svg width="66" height="58" viewBox="0 0 66 58" fill="none" xmlns="http://www.w3.org/2000/svg">
<path d="M12.0462 18L8.35156 4.90909H10.902L13.2607 14.5291H13.3821L15.9006 4.90909H18.2209L20.7457 14.5355H20.8608L23.2195 4.90909H25.7699L22.0753 18H19.7358L17.1151 8.81463H17.0128L14.3857 18H12.0462ZM29.6259 12.2472V18H27.312V4.90909H29.5748V9.85014H29.6898C29.9199 9.29616 30.2757 8.85937 30.7573 8.53977C31.2431 8.21591 31.861 8.05398 32.611 8.05398C33.2928 8.05398 33.8873 8.19673 34.3944 8.48224C34.9015 8.76776 35.2935 9.18537 35.5705 9.73509C35.8517 10.2848 35.9924 10.956 35.9924 11.7486V18H33.6784V12.1065C33.6784 11.446 33.508 10.9325 33.1671 10.5661C32.8304 10.1953 32.3574 10.0099 31.748 10.0099C31.339 10.0099 30.9725 10.0994 30.6486 10.2784C30.329 10.4531 30.0776 10.7067 29.8944 11.0391C29.7154 11.3714 29.6259 11.7741 29.6259 12.2472ZM42.6976 18.1918C41.7132 18.1918 40.8631 17.9872 40.1472 17.5781C39.4355 17.1648 38.888 16.581 38.5044 15.8267C38.1209 15.0682 37.9292 14.1754 37.9292 13.1484C37.9292 12.1385 38.1209 11.2521 38.5044 10.4893C38.8922 9.7223 39.4334 9.12571 40.128 8.69957C40.8226 8.26918 41.6387 8.05398 42.5762 8.05398C43.1813 8.05398 43.7523 8.15199 44.2892 8.34801C44.8304 8.53977 45.3077 8.83807 45.7211 9.2429C46.1387 9.64773 46.4668 10.1634 46.7054 10.7898C46.9441 11.4119 47.0634 12.1534 47.0634 13.0142V13.7237H39.0158V12.1641H44.8453C44.8411 11.7209 44.7452 11.3267 44.5577 10.9815C44.3702 10.6321 44.1081 10.3572 43.7715 10.157C43.4391 9.95668 43.0513 9.85653 42.6081 9.85653C42.1351 9.85653 41.7196 9.97159 41.3617 10.2017C41.0037 10.4276 40.7246 10.7259 40.5243 11.0966C40.3283 11.4631 40.2282 11.8658 40.2239 12.3047V13.6662C40.2239 14.2372 40.3283 14.7273 40.5371 15.1364C40.7459 15.5412 41.0378 15.8523 41.4128 16.0696C41.7878 16.2827 42.2267 16.3892 42.7296 16.3892C43.0662 16.3892 43.3709 16.3423 43.6436 16.2486C43.9164 16.1506 44.1529 16.0078 44.3532 15.8203C44.5534 15.6328 44.7047 15.4006 44.807 15.1236L46.9675 15.3665C46.8311 15.9375 46.5712 16.4361 46.1877 16.8622C45.8084 17.2841 45.3226 17.6122 44.7303 17.8466C44.138 18.0767 43.4604 18.1918 42.6976 18.1918ZM49.021 18V8.18182H51.2646V9.81818H51.3668C51.5458 9.25142 51.8526 8.81463 52.2873 8.50781C52.7262 8.19673 53.2269 8.04119 53.7894 8.04119C53.9173 8.04119 54.06 8.04758 54.2177 8.06037C54.3796 8.06889 54.5138 8.08381 54.6204 8.10511V10.2337C54.5224 10.1996 54.3668 10.1697 54.1538 10.1442C53.945 10.1143 53.7425 10.0994 53.5465 10.0994C53.1246 10.0994 52.7454 10.1911 52.4087 10.3743C52.0763 10.5533 51.8143 10.8026 51.6225 11.1222C51.4308 11.4418 51.3349 11.8104 51.3349 12.228V18H49.021ZM60.1 18.1918C59.1156 18.1918 58.2654 17.9872 57.5495 17.5781C56.8379 17.1648 56.2903 16.581 55.9068 15.8267C55.5233 15.0682 55.3315 14.1754 55.3315 13.1484C55.3315 12.1385 55.5233 11.2521 55.9068 10.4893C56.2946 9.7223 56.8358 9.12571 57.5304 8.69957C58.225 8.26918 59.041 8.05398 59.9785 8.05398C60.5836 8.05398 61.1547 8.15199 61.6916 8.34801C62.2328 8.53977 62.7101 8.83807 63.1234 9.2429C63.541 9.64773 63.8691 10.1634 64.1078 10.7898C64.3464 11.4119 64.4657 12.1534 64.4657 13.0142V13.7237H56.4181V12.1641H62.2477C62.2434 11.7209 62.1476 11.3267 61.9601 10.9815C61.7726 10.6321 61.5105 10.3572 61.1738 10.157C60.8414 9.95668 60.4537 9.85653 60.0105 9.85653C59.5375 9.85653 59.122 9.97159 58.764 10.2017C58.4061 10.4276 58.127 10.7259 57.9267 11.0966C57.7306 11.4631 57.6305 11.8658 57.6262 12.3047V13.6662C57.6262 14.2372 57.7306 14.7273 57.9395 15.1364C58.1483 15.5412 58.4402 15.8523 58.8152 16.0696C59.1902 16.2827 59.6291 16.3892 60.1319 16.3892C60.4686 16.3892 60.7733 16.3423 61.046 16.2486C61.3187 16.1506 61.5552 16.0078 61.7555 15.8203C61.9558 15.6328 62.1071 15.4006 62.2093 15.1236L64.3699 15.3665C64.2335 15.9375 63.9735 16.4361 63.59 16.8622C63.2108 17.2841 62.725 17.6122 62.1326 17.8466C61.5403 18.0767 60.8627 18.1918 60.1 18.1918Z" fill="#0C0D0D"/>
<path d="M34.3061 33.0845C34.4973 32.5663 34.2322 31.9913 33.7141 31.8001L25.2705 28.6847C24.7524 28.4935 24.1774 28.7585 23.9862 29.2767C23.795 29.7948 24.06 30.3698 24.5782 30.561L32.0836 33.3303L29.3143 40.8357C29.1231 41.3539 29.3881 41.9289 29.9063 42.12C30.4244 42.3112 30.9994 42.0462 31.1906 41.528L34.3061 33.0845ZM2.65066 57.9591C7.36867 51.5859 11.4994 47.2043 16.2523 43.5763C21.013 39.9423 26.4366 37.0344 33.7865 33.6465L32.9493 31.8301C25.5555 35.2383 19.9746 38.2188 15.0387 41.9865C10.095 45.7602 5.8371 50.2934 1.0432 56.7691L2.65066 57.9591Z" fill="#4C5251"/>
</svg>
