<svg width="42" height="51" viewBox="0 0 42 51" fill="none" xmlns="http://www.w3.org/2000/svg">
<path d="M5.04616 18L1.35156 4.90909H3.90199L6.26065 14.5291H6.3821L8.90057 4.90909H11.2209L13.7457 14.5355H13.8608L16.2195 4.90909H18.7699L15.0753 18H12.7358L10.1151 8.81463H10.0128L7.38565 18H5.04616ZM22.6259 12.2472V18H20.312V4.90909H22.5748V9.85014H22.6898C22.9199 9.29616 23.2757 8.85937 23.7573 8.53977C24.2431 8.21591 24.861 8.05398 25.611 8.05398C26.2928 8.05398 26.8873 8.19673 27.3944 8.48224C27.9015 8.76776 28.2935 9.18537 28.5705 9.73509C28.8517 10.2848 28.9924 10.956 28.9924 11.7486V18H26.6784V12.1065C26.6784 11.446 26.508 10.9325 26.1671 10.5661C25.8304 10.1953 25.3574 10.0099 24.748 10.0099C24.339 10.0099 23.9725 10.0994 23.6486 10.2784C23.329 10.4531 23.0776 10.7067 22.8944 11.0391C22.7154 11.3714 22.6259 11.7741 22.6259 12.2472ZM35.6337 18.1918C34.6749 18.1918 33.8439 17.9808 33.1408 17.5589C32.4377 17.1371 31.8922 16.5469 31.5044 15.7884C31.1209 15.0298 30.9292 14.1435 30.9292 13.1293C30.9292 12.1151 31.1209 11.2266 31.5044 10.4638C31.8922 9.70099 32.4377 9.10866 33.1408 8.68679C33.8439 8.26491 34.6749 8.05398 35.6337 8.05398C36.5925 8.05398 37.4235 8.26491 38.1266 8.68679C38.8297 9.10866 39.373 9.70099 39.7566 10.4638C40.1444 11.2266 40.3382 12.1151 40.3382 13.1293C40.3382 14.1435 40.1444 15.0298 39.7566 15.7884C39.373 16.5469 38.8297 17.1371 38.1266 17.5589C37.4235 17.9808 36.5925 18.1918 35.6337 18.1918ZM35.6465 16.3381C36.1664 16.3381 36.601 16.1953 36.9505 15.9098C37.2999 15.62 37.5598 15.2322 37.7303 14.7464C37.905 14.2607 37.9924 13.7195 37.9924 13.1229C37.9924 12.522 37.905 11.9787 37.7303 11.4929C37.5598 11.0028 37.2999 10.6129 36.9505 10.3232C36.601 10.0334 36.1664 9.88849 35.6465 9.88849C35.1138 9.88849 34.6706 10.0334 34.3169 10.3232C33.9675 10.6129 33.7054 11.0028 33.5307 11.4929C33.3603 11.9787 33.275 12.522 33.275 13.1229C33.275 13.7195 33.3603 14.2607 33.5307 14.7464C33.7054 15.2322 33.9675 15.62 34.3169 15.9098C34.6706 16.1953 35.1138 16.3381 35.6465 16.3381Z" fill="#0C0D0D"/>
<path d="M34.3061 26.0845C34.4973 25.5663 34.2322 24.9913 33.7141 24.8001L25.2705 21.6847C24.7524 21.4935 24.1774 21.7585 23.9862 22.2767C23.795 22.7948 24.06 23.3698 24.5782 23.561L32.0836 26.3303L29.3143 33.8357C29.1231 34.3539 29.3881 34.9289 29.9063 35.12C30.4244 35.3112 30.9994 35.0462 31.1906 34.528L34.3061 26.0845ZM2.65066 50.9591C7.36867 44.5859 11.4994 40.2043 16.2523 36.5763C21.013 32.9423 26.4366 30.0344 33.7865 26.6465L32.9493 24.8301C25.5555 28.2383 19.9746 31.2188 15.0387 34.9865C10.095 38.7602 5.8371 43.2934 1.0432 49.7691L2.65066 50.9591Z" fill="#4C5251"/>
</svg>
