<svg width="71" height="52" viewBox="0 0 71 52" fill="none" xmlns="http://www.w3.org/2000/svg">
<path d="M28.0462 18L24.3516 4.90909H26.902L29.2607 14.5291H29.3821L31.9006 4.90909H34.2209L36.7457 14.5355H36.8608L39.2195 4.90909H41.7699L38.0753 18H35.7358L33.1151 8.81463H33.0128L30.3857 18H28.0462ZM45.6259 12.2472V18H43.312V4.90909H45.5748V9.85014H45.6898C45.9199 9.29616 46.2757 8.85937 46.7573 8.53977C47.2431 8.21591 47.861 8.05398 48.611 8.05398C49.2928 8.05398 49.8873 8.19673 50.3944 8.48224C50.9015 8.76776 51.2935 9.18537 51.5705 9.73509C51.8517 10.2848 51.9924 10.956 51.9924 11.7486V18H49.6784V12.1065C49.6784 11.446 49.508 10.9325 49.1671 10.5661C48.8304 10.1953 48.3574 10.0099 47.748 10.0099C47.339 10.0099 46.9725 10.0994 46.6486 10.2784C46.329 10.4531 46.0776 10.7067 45.8944 11.0391C45.7154 11.3714 45.6259 11.7741 45.6259 12.2472ZM57.1763 18.1982C56.5542 18.1982 55.9938 18.0874 55.4952 17.8658C55.0009 17.6399 54.6088 17.3075 54.3191 16.8686C54.0336 16.4297 53.8908 15.8885 53.8908 15.245C53.8908 14.6911 53.9931 14.233 54.1976 13.8707C54.4022 13.5085 54.6813 13.2188 55.035 13.0014C55.3887 12.7841 55.7871 12.62 56.2303 12.5092C56.6777 12.3942 57.1401 12.3111 57.6174 12.2599C58.1926 12.2003 58.6593 12.147 59.0172 12.1001C59.3752 12.049 59.6351 11.9723 59.7971 11.87C59.9632 11.7635 60.0463 11.5994 60.0463 11.3778V11.3395C60.0463 10.858 59.9036 10.4851 59.6181 10.2209C59.3326 9.95668 58.9213 9.82457 58.3844 9.82457C57.8176 9.82457 57.3681 9.94815 57.0357 10.1953C56.7076 10.4425 56.486 10.7344 56.3709 11.071L54.2104 10.7642C54.3809 10.1676 54.6621 9.66903 55.0542 9.26847C55.4462 8.86364 55.9256 8.56108 56.4924 8.3608C57.0591 8.15625 57.6855 8.05398 58.3716 8.05398C58.8446 8.05398 59.3155 8.10938 59.7843 8.22017C60.253 8.33097 60.6813 8.5142 61.0691 8.76989C61.4569 9.02131 61.7679 9.36435 62.0023 9.79901C62.2409 10.2337 62.3603 10.777 62.3603 11.429V18H60.1358V16.6513H60.0591C59.9185 16.924 59.7203 17.1797 59.4647 17.4183C59.2132 17.6527 58.8958 17.8423 58.5123 17.9872C58.133 18.1278 57.6877 18.1982 57.1763 18.1982ZM57.7772 16.4979C58.2417 16.4979 58.6444 16.4062 58.9853 16.223C59.3262 16.0355 59.5882 15.7884 59.7715 15.4815C59.959 15.1747 60.0527 14.8402 60.0527 14.478V13.321C59.9803 13.3807 59.8567 13.4361 59.682 13.4872C59.5115 13.5384 59.3198 13.5831 59.1067 13.6214C58.8936 13.6598 58.6827 13.6939 58.4739 13.7237C58.2651 13.7536 58.084 13.7791 57.9306 13.8004C57.5854 13.8473 57.2765 13.924 57.0037 14.0305C56.731 14.1371 56.5158 14.2862 56.3581 14.478C56.2005 14.6655 56.1216 14.9084 56.1216 15.2067C56.1216 15.6328 56.2772 15.9545 56.5882 16.1719C56.8993 16.3892 57.2956 16.4979 57.7772 16.4979ZM69.5897 8.18182V9.97159H63.9455V8.18182H69.5897ZM65.339 5.82955H67.6529V15.0469C67.6529 15.358 67.6998 15.5966 67.7935 15.7628C67.8915 15.9247 68.0194 16.0355 68.177 16.0952C68.3347 16.1548 68.5094 16.1847 68.7012 16.1847C68.8461 16.1847 68.9782 16.174 69.0975 16.1527C69.2211 16.1314 69.3148 16.1122 69.3787 16.0952L69.7686 17.9041C69.6451 17.9467 69.4682 17.9936 69.2381 18.0447C69.0123 18.0959 68.7353 18.1257 68.4071 18.1342C67.8276 18.1513 67.3056 18.0639 66.8411 17.8722C66.3766 17.6761 66.008 17.3736 65.7353 16.9645C65.4668 16.5554 65.3347 16.044 65.339 15.4304V5.82955Z" fill="#0C0D0D"/>
<path d="M35.2154 28.6437C35.4105 28.127 35.1499 27.55 34.6332 27.3549L26.2138 24.1748C25.6971 23.9796 25.1201 24.2403 24.9249 24.7569C24.7298 25.2736 24.9904 25.8506 25.5071 26.0458L32.9911 28.8725L30.1643 36.3565C29.9692 36.8731 30.2298 37.4502 30.7465 37.6453C31.2631 37.8404 31.8402 37.5798 32.0353 37.0632L35.2154 28.6437ZM1.80812 51.3821C12.9795 40.7403 19.9721 35.8503 34.6915 29.2017L33.8682 27.379C18.9346 34.1244 11.7557 39.1439 0.428647 49.934L1.80812 51.3821Z" fill="#4C5251"/>
</svg>
