<svg width="48" height="48" viewBox="0 0 48 48" fill="none" xmlns="http://www.w3.org/2000/svg">
<path d="M36 6V33C36 33.9193 35.8189 34.8295 35.4672 35.6788C35.1154 36.5281 34.5998 37.2997 33.9497 37.9497C33.2997 38.5998 32.5281 39.1154 31.6788 39.4672C30.8295 39.8189 29.9193 40 29 40C28.0807 40 27.1705 39.8189 26.3212 39.4672C25.4719 39.1154 24.7003 38.5998 24.0503 37.9497C23.4002 37.2997 22.8846 36.5281 22.5328 35.6788C22.1811 34.8295 22 33.9193 22 33V15C22 13.1435 21.2625 11.363 19.9497 10.0503C18.637 8.7375 16.8565 8 15 8C13.1435 8 11.363 8.7375 10.0503 10.0503C8.7375 11.363 8 13.1435 8 15V39M36 6L43 13M36 6L29 13" stroke="#3B3E3E" stroke-width="1.5" stroke-linecap="round" stroke-linejoin="round"/>
</svg>
