<svg xmlns="http://www.w3.org/2000/svg" width="132" height="20" viewBox="0 0 132 20" fill="none">
  <g clip-path="url(#clip0_941_1339)">
    <path d="M28.6045 15.6419H27.1572C21.5843 15.3817 19.2889 13.8084 19.2889 10.225V9.87448C19.2889 6.20738 21.5829 4.63408 27.1572 4.57392H28.6045C33.8354 4.57392 36.4523 6.34077 36.4523 9.87448V10.225C36.4523 13.8371 33.8368 15.6419 28.6045 15.6419ZM27.8904 12.8157C31.7288 12.8157 31.8451 10.8475 31.8451 10.1073V10.0105C31.8451 9.25719 31.7288 7.35956 27.911 7.35956H27.8904C24.0507 7.35956 23.9358 9.24411 23.9358 10.0105V10.1073C23.9358 10.8475 24.0507 12.8157 27.8904 12.8157Z" fill="#262C2C"/>
    <path d="M46.9292 19.1495H45.482C44.177 19.1495 43.0388 19.0422 42.0676 18.8278C41.0964 18.6133 40.3618 18.3635 39.8666 18.0771C39.3701 17.7907 38.9734 17.4572 38.6738 17.074C38.3742 16.6908 38.1909 16.3756 38.1239 16.1284C38.0555 15.8813 38.0213 15.6406 38.0213 15.4078V15.349H42.6079C42.7707 15.999 43.9389 16.3233 46.1139 16.3233H46.1755C48.7841 16.3233 50.0891 15.3163 50.0891 13.3023C48.8525 14.355 47.0728 14.8808 44.7487 14.8808H44.5039C42.0854 14.8808 40.2879 14.4126 39.1129 13.4775C37.9378 12.5424 37.3496 11.3405 37.3496 9.87187V9.48214C37.3496 8.07886 37.879 6.91622 38.9392 5.99421C39.9993 5.0722 41.6641 4.61055 43.9335 4.61055H44.3616C46.9306 4.61055 48.832 5.16244 50.0686 6.26754V4.6027H54.6347V13.4396C54.6347 13.8816 54.5869 14.3237 54.4925 14.7644C54.3967 15.2064 54.1833 15.7021 53.8509 16.2553C53.5171 16.8072 53.0862 17.2885 52.5569 17.6978C52.0275 18.1072 51.2765 18.4511 50.3039 18.731C49.3327 19.0109 48.2082 19.1495 46.9306 19.1495H46.9292ZM45.8486 7.33995H45.7268C44.3821 7.33995 43.4205 7.56097 42.8419 8.00301C42.2646 8.44505 41.976 9.00348 41.976 9.67962V9.7764C41.976 10.4525 42.2783 11.0267 42.8829 11.5014C43.4875 11.9761 44.4355 12.2129 45.7268 12.2129H45.8486C47.1932 12.2129 48.2192 11.9761 48.9264 11.5014C49.6322 11.0267 49.9865 10.4591 49.9865 9.79602V9.71755C49.9865 9.04272 49.6336 8.47644 48.9264 8.02262C48.2192 7.56881 47.1932 7.34126 45.8486 7.34126V7.33995Z" fill="#262C2C"/>
    <path d="M105.54 11.6466V11.6662C105.54 11.9905 105.492 12.3123 105.397 12.6314C105.302 12.9505 105.091 13.297 104.765 13.6737C104.44 14.0503 104.019 14.3786 103.501 14.6572C102.984 14.937 102.254 15.1711 101.31 15.3595C100.365 15.5478 99.2678 15.6419 98.0188 15.6419H96.8575C95.4444 15.6419 94.2215 15.4955 93.1887 15.2038C92.1559 14.9109 91.3543 14.5055 90.7839 13.9863C90.2135 13.4671 89.7949 12.9021 89.5309 12.2913C89.2655 11.6806 89.1328 11.0123 89.1328 10.2838V9.85488C89.1328 9.14082 89.2546 8.4843 89.4994 7.88663C89.7443 7.28896 90.141 6.73445 90.6922 6.22048C91.2421 5.70782 92.0301 5.30501 93.056 5.01206C94.082 4.71911 95.309 4.57394 96.7357 4.57394H97.9792C103.061 4.57394 105.603 6.45719 105.603 10.225V10.9456H93.5964C93.8946 12.3096 95.1859 12.991 97.4689 12.991H97.4895C98.0599 12.991 98.566 12.9518 99.0079 12.8746C99.4497 12.7962 99.793 12.702 100.037 12.5921C100.281 12.4823 100.481 12.358 100.638 12.222C100.794 12.0847 100.9 11.9748 100.954 11.8911C101.009 11.8061 101.042 11.7251 101.056 11.6479H105.54V11.6466ZM97.3458 7.00909H97.3253C95.2597 7.00909 94.0437 7.60022 93.6771 8.78248H101.015C100.689 7.60022 99.4647 7.00909 97.3458 7.00909Z" fill="#262C2C"/>
    <path d="M114.537 15.6419H113.702C109 15.6419 106.649 14.4008 106.649 11.9199V11.8035H111.337C111.337 12.7517 112.275 13.2264 114.149 13.2264H114.19C114.978 13.2264 115.594 13.1741 116.035 13.0708C116.477 12.9675 116.752 12.8497 116.86 12.7203C116.968 12.5908 117.023 12.4273 117.023 12.2338V12.1945C117.023 11.8964 116.87 11.6753 116.565 11.5315C116.258 11.3889 115.61 11.3039 114.618 11.2778L112.661 11.2385C111.52 11.2124 110.545 11.1025 109.736 10.9076C108.928 10.7128 108.316 10.4538 107.902 10.1282C107.487 9.80386 107.192 9.46513 107.015 9.11464C106.839 8.76415 106.75 8.38096 106.75 7.96508V7.84868C106.75 7.48511 106.794 7.16077 106.883 6.87436C106.97 6.58926 107.16 6.29631 107.453 5.99682C107.744 5.69864 108.136 5.45146 108.625 5.2566C109.115 5.06173 109.787 4.89957 110.643 4.76879C111.499 4.63931 112.512 4.57392 113.68 4.57392H114.495C119.075 4.57392 121.365 5.67117 121.365 7.86699V8.003H116.738C116.711 7.87353 116.67 7.75975 116.617 7.66166C116.562 7.56358 116.454 7.45372 116.291 7.33079C116.128 7.20785 115.853 7.10977 115.466 7.03784C115.079 6.96591 114.6 6.9306 114.03 6.9306H114.009C112.977 6.9306 112.283 6.98945 111.93 7.10584C111.577 7.22224 111.401 7.42495 111.401 7.71005V7.74929C111.401 8.00954 111.564 8.20702 111.891 8.34303C112.216 8.47904 112.821 8.56144 113.704 8.58629L115.661 8.62552C117.305 8.65168 118.582 8.80077 119.492 9.0741C120.402 9.34743 121.011 9.70054 121.317 10.136C121.622 10.5715 121.775 11.1666 121.775 11.9199V12.0363C121.775 12.5699 121.677 13.0342 121.48 13.4291C121.283 13.8254 120.937 14.1994 120.44 14.5499C119.944 14.9004 119.199 15.1698 118.208 15.3581C117.216 15.5465 115.993 15.6406 114.539 15.6406L114.537 15.6419Z" fill="#262C2C"/>
    <path d="M131.22 15.349H127.286C125.479 15.349 124.574 14.355 124.574 12.3672V7.48773H122.434V4.6027H124.574V1.54373H129.058V4.6027H131.22V7.48642H129.058V11.5485C129.058 11.8597 129.12 12.0912 129.242 12.2403C129.363 12.3894 129.608 12.464 129.975 12.464H131.218V15.3477L131.22 15.349Z" fill="#262C2C"/>
    <path d="M65.3546 15.6419H63.9074C58.3344 15.3817 56.0391 13.8084 56.0391 10.225V9.8745C56.0391 6.2074 58.3331 4.6341 63.9074 4.57394H65.3546C70.5856 4.57394 73.2024 6.3408 73.2024 9.8745V10.225C73.2024 13.8372 70.5869 15.6419 65.3546 15.6419ZM64.6406 12.8158C68.479 12.8158 68.5952 10.8475 68.5952 10.1073V10.0105C68.5952 9.25722 68.479 7.35958 64.6611 7.35958H64.6406C60.8008 7.35958 60.6859 9.24414 60.6859 10.0105V10.1073C60.6859 10.8475 60.8008 12.8158 64.6406 12.8158Z" fill="#262C2C"/>
    <path d="M89.5852 4.57392L84.0355 15.4261H78.3805L74.3082 7.78067H79.2409L81.3147 11.9971L84.859 4.57392H89.5852ZM84.8481 1.26777H74.2302V4.52553H84.8481V1.26908V1.26777Z" fill="#262C2C"/>
    <path d="M13.3672 0.850555H5.6808V3.99584H13.0936V8.37308C13.0936 9.50303 12.7913 10.3832 12.1866 11.0136C11.582 11.6439 10.6683 11.9591 9.44533 11.9591H9.20047C8.57533 11.9591 8.02816 11.8806 7.56033 11.725C7.09113 11.5694 6.7382 11.3876 6.50018 11.1796C6.26217 10.9717 6.06518 10.718 5.90924 10.4198C5.7533 10.1216 5.65481 9.88753 5.61377 9.71882C5.57273 9.55011 5.54537 9.36833 5.53169 9.17346H0.720703V9.28986C0.720703 9.87445 0.794571 10.446 0.945043 11.0044C1.09415 11.5628 1.35952 12.1213 1.73981 12.6797C2.12009 13.2381 2.6057 13.7286 3.19665 14.151C3.78759 14.5734 4.56184 14.9148 5.52075 15.1737C6.4783 15.4326 7.56169 15.5634 8.77231 15.5634H9.91316C11.1498 15.5634 12.2509 15.4104 13.2153 15.1057C14.1797 14.801 14.9485 14.4139 15.5189 13.9457C16.0893 13.4788 16.5585 12.919 16.9251 12.2704C17.2917 11.6204 17.5393 10.9913 17.6693 10.3806C17.7979 9.76983 17.8635 9.13946 17.8635 8.49079V0.850555H13.3672Z" fill="#262C2C"/>
  </g>
  <defs>
    <clipPath id="clip0_941_1339">
      <rect width="130.5" height="18.2989" fill="white" transform="translate(0.720703 0.850555)"/>
    </clipPath>
  </defs>
</svg>