<svg width="132" height="15" viewBox="0 0 132 15" fill="none" xmlns="http://www.w3.org/2000/svg">
<path d="M6.0087 11.66C4.9207 11.66 3.96604 11.42 3.1447 10.94C2.33404 10.46 1.7047 9.78798 1.2567 8.92398C0.808703 8.04931 0.584703 7.02531 0.584703 5.85198C0.584703 4.66798 0.808703 3.64398 1.2567 2.77998C1.7047 1.91598 2.33404 1.24931 3.1447 0.779977C3.95537 0.299977 4.91004 0.0599766 6.0087 0.0599766C7.10737 0.0599766 8.06204 0.299977 8.8727 0.779977C9.68337 1.24931 10.3127 1.91598 10.7607 2.77998C11.2087 3.64398 11.4327 4.66264 11.4327 5.83598C11.4327 7.01998 11.2087 8.04931 10.7607 8.92398C10.3127 9.78798 9.68337 10.46 8.8727 10.94C8.06204 11.42 7.10737 11.66 6.0087 11.66ZM6.0087 9.89998C7.04337 9.89998 7.8487 9.54264 8.4247 8.82798C9.0007 8.11331 9.2887 7.12131 9.2887 5.85198C9.2887 4.57198 9.0007 3.57998 8.4247 2.87598C7.85937 2.17198 7.05404 1.81998 6.0087 1.81998C4.97404 1.81998 4.1687 2.17198 3.5927 2.87598C3.0167 3.57998 2.7287 4.57198 2.7287 5.85198C2.7287 7.12131 3.0167 8.11331 3.5927 8.82798C4.1687 9.54264 4.97404 9.89998 6.0087 9.89998ZM13.3232 14.38V3.67598H15.2752V4.92398C15.4992 4.49731 15.8352 4.15598 16.2832 3.89998C16.7419 3.64398 17.2592 3.51598 17.8352 3.51598C18.5179 3.51598 19.1152 3.68131 19.6272 4.01198C20.1499 4.34264 20.5552 4.81198 20.8432 5.41998C21.1312 6.01731 21.2752 6.73731 21.2752 7.57998C21.2752 8.41198 21.1312 9.13731 20.8432 9.75598C20.5552 10.364 20.1552 10.8333 19.6432 11.164C19.1312 11.4946 18.5285 11.66 17.8352 11.66C17.2805 11.66 16.7792 11.5426 16.3312 11.308C15.8939 11.0626 15.5579 10.7373 15.3232 10.332V14.38H13.3232ZM17.2752 10.14C17.8725 10.14 18.3525 9.92664 18.7152 9.49998C19.0779 9.06264 19.2592 8.42264 19.2592 7.57998C19.2592 6.72664 19.0779 6.09198 18.7152 5.67598C18.3525 5.24931 17.8725 5.03598 17.2752 5.03598C16.6779 5.03598 16.1979 5.24931 15.8352 5.67598C15.4725 6.09198 15.2912 6.72664 15.2912 7.57998C15.2912 8.42264 15.4725 9.06264 15.8352 9.49998C16.1979 9.92664 16.6779 10.14 17.2752 10.14ZM22.917 14.38V3.67598H24.869V4.92398C25.093 4.49731 25.429 4.15598 25.877 3.89998C26.3356 3.64398 26.853 3.51598 27.429 3.51598C28.1116 3.51598 28.709 3.68131 29.221 4.01198C29.7436 4.34264 30.149 4.81198 30.437 5.41998C30.725 6.01731 30.869 6.73731 30.869 7.57998C30.869 8.41198 30.725 9.13731 30.437 9.75598C30.149 10.364 29.749 10.8333 29.237 11.164C28.725 11.4946 28.1223 11.66 27.429 11.66C26.8743 11.66 26.373 11.5426 25.925 11.308C25.4876 11.0626 25.1516 10.7373 24.917 10.332V14.38H22.917ZM26.869 10.14C27.4663 10.14 27.9463 9.92664 28.309 9.49998C28.6716 9.06264 28.853 8.42264 28.853 7.57998C28.853 6.72664 28.6716 6.09198 28.309 5.67598C27.9463 5.24931 27.4663 5.03598 26.869 5.03598C26.2716 5.03598 25.7916 5.24931 25.429 5.67598C25.0663 6.09198 24.885 6.72664 24.885 7.57998C24.885 8.42264 25.0663 9.06264 25.429 9.49998C25.7916 9.92664 26.2716 10.14 26.869 10.14ZM32.3827 1.99598V0.0439768H34.6227V1.99598H32.3827ZM32.5107 11.5V3.67598H34.5107V11.5H32.5107ZM39.1648 11.66C38.5995 11.66 38.0928 11.5533 37.6448 11.34C37.2075 11.116 36.8608 10.8173 36.6048 10.444C36.3595 10.0706 36.2368 9.64931 36.2368 9.17998C36.2368 8.60398 36.3862 8.15064 36.6848 7.81998C36.9835 7.47864 37.4688 7.23331 38.1408 7.08398C38.8128 6.93464 39.7142 6.85998 40.8448 6.85998H41.4048V6.52398C41.4048 5.99064 41.2875 5.60664 41.0528 5.37198C40.8182 5.13731 40.4235 5.01998 39.8688 5.01998C39.4315 5.01998 38.9835 5.08931 38.5248 5.22798C38.0662 5.35598 37.6022 5.55864 37.1328 5.83598L36.5568 4.47598C36.8342 4.28398 37.1595 4.11864 37.5328 3.97998C37.9168 3.83064 38.3168 3.71864 38.7328 3.64398C39.1595 3.55864 39.5595 3.51598 39.9328 3.51598C41.0742 3.51598 41.9222 3.78264 42.4768 4.31598C43.0315 4.83864 43.3088 5.65464 43.3088 6.76398V11.5H41.4368V10.252C41.2555 10.6893 40.9675 11.036 40.5728 11.292C40.1782 11.5373 39.7088 11.66 39.1648 11.66ZM39.5808 10.284C40.1035 10.284 40.5355 10.1026 40.8768 9.73998C41.2288 9.37731 41.4048 8.91864 41.4048 8.36398V8.01198H40.8608C39.8582 8.01198 39.1595 8.09198 38.7648 8.25198C38.3808 8.40131 38.1888 8.67864 38.1888 9.08398C38.1888 9.43598 38.3115 9.72398 38.5568 9.94798C38.8022 10.172 39.1435 10.284 39.5808 10.284ZM49.8433 11.5V0.219976H57.2193V1.85198H51.8913V5.03598H56.8833V6.66798H51.8913V11.5H49.8433ZM61.9225 11.66C61.1118 11.66 60.4078 11.4946 59.8105 11.164C59.2131 10.8333 58.7491 10.364 58.4185 9.75598C58.0878 9.13731 57.9225 8.41198 57.9225 7.57998C57.9225 6.74798 58.0878 6.02798 58.4185 5.41998C58.7491 4.81198 59.2131 4.34264 59.8105 4.01198C60.4078 3.68131 61.1118 3.51598 61.9225 3.51598C62.7331 3.51598 63.4371 3.68131 64.0345 4.01198C64.6318 4.34264 65.0958 4.81198 65.4265 5.41998C65.7571 6.02798 65.9225 6.74798 65.9225 7.57998C65.9225 8.41198 65.7571 9.13731 65.4265 9.75598C65.0958 10.364 64.6318 10.8333 64.0345 11.164C63.4371 11.4946 62.7331 11.66 61.9225 11.66ZM61.9225 10.14C62.5198 10.14 62.9998 9.92664 63.3625 9.49998C63.7251 9.06264 63.9065 8.42264 63.9065 7.57998C63.9065 6.72664 63.7251 6.09198 63.3625 5.67598C62.9998 5.24931 62.5198 5.03598 61.9225 5.03598C61.3251 5.03598 60.8451 5.24931 60.4825 5.67598C60.1198 6.09198 59.9385 6.72664 59.9385 7.57998C59.9385 8.42264 60.1198 9.06264 60.4825 9.49998C60.8451 9.92664 61.3251 10.14 61.9225 10.14ZM70.4052 11.66C68.4852 11.66 67.5252 10.5826 67.5252 8.42798V3.67598H69.5252V8.45998C69.5252 9.01464 69.6372 9.42531 69.8612 9.69198C70.0852 9.95864 70.4425 10.092 70.9332 10.092C71.4665 10.092 71.9039 9.91064 72.2452 9.54798C72.5865 9.17464 72.7572 8.68398 72.7572 8.07598V3.67598H74.7572V11.5H72.8052V10.332C72.2825 11.2173 71.4825 11.66 70.4052 11.66ZM76.8388 11.5V3.67598H78.7908V4.89198C79.0575 4.44398 79.4148 4.10264 79.8628 3.86798C80.3215 3.63331 80.8335 3.51598 81.3988 3.51598C83.2442 3.51598 84.1668 4.58798 84.1668 6.73198V11.5H82.1668V6.82798C82.1668 6.21998 82.0495 5.77731 81.8148 5.49998C81.5908 5.22264 81.2388 5.08398 80.7588 5.08398C80.1722 5.08398 79.7028 5.27064 79.3508 5.64398C79.0095 6.00664 78.8388 6.49198 78.8388 7.09998V11.5H76.8388ZM89.2062 11.66C88.5235 11.66 87.9209 11.4946 87.3982 11.164C86.8862 10.8333 86.4862 10.364 86.1982 9.75598C85.9102 9.13731 85.7662 8.41198 85.7662 7.57998C85.7662 6.73731 85.9102 6.01731 86.1982 5.41998C86.4862 4.81198 86.8862 4.34264 87.3982 4.01198C87.9209 3.68131 88.5235 3.51598 89.2062 3.51598C89.7609 3.51598 90.2622 3.63864 90.7102 3.88398C91.1582 4.12931 91.4942 4.45464 91.7182 4.85998V0.219976H93.7182V11.5H91.7662V10.204C91.5529 10.652 91.2169 11.0093 90.7582 11.276C90.2995 11.532 89.7822 11.66 89.2062 11.66ZM89.7662 10.14C90.3635 10.14 90.8435 9.92664 91.2062 9.49998C91.5689 9.06264 91.7502 8.42264 91.7502 7.57998C91.7502 6.72664 91.5689 6.09198 91.2062 5.67598C90.8435 5.24931 90.3635 5.03598 89.7662 5.03598C89.1689 5.03598 88.6889 5.24931 88.3262 5.67598C87.9635 6.09198 87.7822 6.72664 87.7822 7.57998C87.7822 8.42264 87.9635 9.06264 88.3262 9.49998C88.6889 9.92664 89.1689 10.14 89.7662 10.14ZM98.368 11.66C97.8026 11.66 97.296 11.5533 96.848 11.34C96.4106 11.116 96.064 10.8173 95.808 10.444C95.5626 10.0706 95.44 9.64931 95.44 9.17998C95.44 8.60398 95.5893 8.15064 95.888 7.81998C96.1866 7.47864 96.672 7.23331 97.344 7.08398C98.016 6.93464 98.9173 6.85998 100.048 6.85998H100.608V6.52398C100.608 5.99064 100.491 5.60664 100.256 5.37198C100.021 5.13731 99.6266 5.01998 99.072 5.01998C98.6346 5.01998 98.1866 5.08931 97.728 5.22798C97.2693 5.35598 96.8053 5.55864 96.336 5.83598L95.76 4.47598C96.0373 4.28398 96.3626 4.11864 96.736 3.97998C97.12 3.83064 97.52 3.71864 97.936 3.64398C98.3626 3.55864 98.7626 3.51598 99.136 3.51598C100.277 3.51598 101.125 3.78264 101.68 4.31598C102.235 4.83864 102.512 5.65464 102.512 6.76398V11.5H100.64V10.252C100.459 10.6893 100.171 11.036 99.776 11.292C99.3813 11.5373 98.912 11.66 98.368 11.66ZM98.784 10.284C99.3066 10.284 99.7386 10.1026 100.08 9.73998C100.432 9.37731 100.608 8.91864 100.608 8.36398V8.01198H100.064C99.0613 8.01198 98.3626 8.09198 97.968 8.25198C97.584 8.40131 97.392 8.67864 97.392 9.08398C97.392 9.43598 97.5146 9.72398 97.76 9.94798C98.0053 10.172 98.3466 10.284 98.784 10.284ZM108.126 11.66C106.057 11.66 105.022 10.636 105.022 8.58798V5.17998H103.518V3.67598H105.022V1.33998H107.022V3.67598H109.39V5.17998H107.022V8.47598C107.022 8.98798 107.134 9.37198 107.358 9.62798C107.582 9.88398 107.945 10.012 108.446 10.012C108.595 10.012 108.75 9.99598 108.91 9.96398C109.07 9.92131 109.235 9.87864 109.406 9.83598L109.71 11.308C109.518 11.4146 109.273 11.5 108.974 11.564C108.686 11.628 108.403 11.66 108.126 11.66ZM110.555 1.99598V0.0439768H112.795V1.99598H110.555ZM110.683 11.5V3.67598H112.683V11.5H110.683ZM118.329 11.66C117.518 11.66 116.814 11.4946 116.217 11.164C115.619 10.8333 115.155 10.364 114.825 9.75598C114.494 9.13731 114.329 8.41198 114.329 7.57998C114.329 6.74798 114.494 6.02798 114.825 5.41998C115.155 4.81198 115.619 4.34264 116.217 4.01198C116.814 3.68131 117.518 3.51598 118.329 3.51598C119.139 3.51598 119.843 3.68131 120.441 4.01198C121.038 4.34264 121.502 4.81198 121.833 5.41998C122.163 6.02798 122.329 6.74798 122.329 7.57998C122.329 8.41198 122.163 9.13731 121.833 9.75598C121.502 10.364 121.038 10.8333 120.441 11.164C119.843 11.4946 119.139 11.66 118.329 11.66ZM118.329 10.14C118.926 10.14 119.406 9.92664 119.769 9.49998C120.131 9.06264 120.313 8.42264 120.313 7.57998C120.313 6.72664 120.131 6.09198 119.769 5.67598C119.406 5.24931 118.926 5.03598 118.329 5.03598C117.731 5.03598 117.251 5.24931 116.889 5.67598C116.526 6.09198 116.345 6.72664 116.345 7.57998C116.345 8.42264 116.526 9.06264 116.889 9.49998C117.251 9.92664 117.731 10.14 118.329 10.14ZM123.979 11.5V3.67598H125.931V4.89198C126.198 4.44398 126.555 4.10264 127.003 3.86798C127.462 3.63331 127.974 3.51598 128.539 3.51598C130.385 3.51598 131.307 4.58798 131.307 6.73198V11.5H129.307V6.82798C129.307 6.21998 129.19 5.77731 128.955 5.49998C128.731 5.22264 128.379 5.08398 127.899 5.08398C127.313 5.08398 126.843 5.27064 126.491 5.64398C126.15 6.00664 125.979 6.49198 125.979 7.09998V11.5H123.979Z" fill="#262C2C"/>
</svg>
