<svg width="54" height="14" viewBox="0 0 54 14" fill="none" xmlns="http://www.w3.org/2000/svg">
<path d="M0.328 13V1.8H5.176C6.17867 1.8 7.04267 1.96533 7.768 2.296C8.49333 2.616 9.05333 3.08 9.448 3.688C9.84267 4.296 10.04 5.02133 10.04 5.864C10.04 6.696 9.84267 7.416 9.448 8.024C9.05333 8.632 8.49333 9.10133 7.768 9.432C7.04267 9.752 6.17867 9.912 5.176 9.912H1.768L2.92 8.744V13H0.328ZM2.92 9.032L1.768 7.8H5.032C5.832 7.8 6.42933 7.62933 6.824 7.288C7.21867 6.94667 7.416 6.472 7.416 5.864C7.416 5.24533 7.21867 4.76533 6.824 4.424C6.42933 4.08267 5.832 3.912 5.032 3.912H1.768L2.92 2.68V9.032ZM11.6989 13V4.392H14.0829V6.824L13.7469 6.12C14.0029 5.512 14.4135 5.05333 14.9789 4.744C15.5442 4.424 16.2322 4.264 17.0429 4.264V6.568C16.9362 6.55733 16.8402 6.552 16.7549 6.552C16.6695 6.54133 16.5789 6.536 16.4829 6.536C15.8002 6.536 15.2455 6.73333 14.8189 7.128C14.4029 7.512 14.1949 8.11467 14.1949 8.936V13H11.6989ZM18.5426 13V4.392H21.0386V13H18.5426ZM19.7906 3.192C19.332 3.192 18.9586 3.05867 18.6706 2.792C18.3826 2.52533 18.2386 2.19467 18.2386 1.8C18.2386 1.40533 18.3826 1.07467 18.6706 0.808C18.9586 0.541333 19.332 0.407999 19.7906 0.407999C20.2493 0.407999 20.6226 0.535999 20.9106 0.792C21.1986 1.03733 21.3426 1.35733 21.3426 1.752C21.3426 2.168 21.1986 2.51467 20.9106 2.792C20.6333 3.05867 20.26 3.192 19.7906 3.192ZM23.6591 13V4.2C23.6591 3.22933 23.9471 2.456 24.5231 1.88C25.0991 1.29333 25.9205 0.999999 26.9871 0.999999C27.3498 0.999999 27.6965 1.03733 28.0271 1.112C28.3685 1.18667 28.6565 1.304 28.8911 1.464L28.2351 3.272C28.0965 3.176 27.9418 3.10133 27.7711 3.048C27.6005 2.99467 27.4191 2.968 27.2271 2.968C26.8645 2.968 26.5818 3.07467 26.3791 3.288C26.1871 3.49067 26.0911 3.8 26.0911 4.216V5.016L26.1551 6.088V13H23.6591ZM22.3311 6.504V4.584H28.2991V6.504H22.3311ZM29.7071 13V4.392H32.2031V13H29.7071ZM30.9551 3.192C30.4965 3.192 30.1231 3.05867 29.8351 2.792C29.5471 2.52533 29.4031 2.19467 29.4031 1.8C29.4031 1.40533 29.5471 1.07467 29.8351 0.808C30.1231 0.541333 30.4965 0.407999 30.9551 0.407999C31.4138 0.407999 31.7871 0.535999 32.0751 0.792C32.3631 1.03733 32.5071 1.35733 32.5071 1.752C32.5071 2.168 32.3631 2.51467 32.0751 2.792C31.7978 3.05867 31.4245 3.192 30.9551 3.192ZM39.7434 4.264C40.426 4.264 41.034 4.40267 41.5674 4.68C42.1114 4.94667 42.538 5.36267 42.8474 5.928C43.1567 6.48267 43.3114 7.19733 43.3114 8.072V13H40.8154V8.456C40.8154 7.76267 40.6607 7.25067 40.3514 6.92C40.0527 6.58933 39.626 6.424 39.0714 6.424C38.6767 6.424 38.3194 6.50933 37.9994 6.68C37.69 6.84 37.4447 7.09067 37.2634 7.432C37.0927 7.77333 37.0074 8.21067 37.0074 8.744V13H34.5114V4.392H36.8954V6.776L36.4474 6.056C36.7567 5.48 37.1994 5.03733 37.7754 4.728C38.3514 4.41867 39.0074 4.264 39.7434 4.264ZM50.8539 13V11.32L50.6939 10.952V7.944C50.6939 7.41067 50.5285 6.99467 50.1979 6.696C49.8779 6.39733 49.3819 6.248 48.7099 6.248C48.2512 6.248 47.7979 6.32267 47.3499 6.472C46.9125 6.61067 46.5392 6.80267 46.2299 7.048L45.3339 5.304C45.8032 4.97333 46.3685 4.71733 47.0299 4.536C47.6912 4.35467 48.3632 4.264 49.0459 4.264C50.3579 4.264 51.3765 4.57333 52.1019 5.192C52.8272 5.81067 53.1899 6.776 53.1899 8.088V13H50.8539ZM48.2299 13.128C47.5579 13.128 46.9819 13.016 46.5019 12.792C46.0219 12.5573 45.6539 12.2427 45.3979 11.848C45.1419 11.4533 45.0139 11.0107 45.0139 10.52C45.0139 10.008 45.1365 9.56 45.3819 9.176C45.6379 8.792 46.0379 8.49333 46.5819 8.28C47.1259 8.056 47.8352 7.944 48.7099 7.944H50.9979V9.4H48.9819C48.3952 9.4 47.9899 9.496 47.7659 9.688C47.5525 9.88 47.4459 10.12 47.4459 10.408C47.4459 10.728 47.5685 10.984 47.8139 11.176C48.0699 11.3573 48.4165 11.448 48.8539 11.448C49.2699 11.448 49.6432 11.352 49.9739 11.16C50.3045 10.9573 50.5445 10.664 50.6939 10.28L51.0779 11.432C50.8965 11.9867 50.5659 12.408 50.0859 12.696C49.6059 12.984 48.9872 13.128 48.2299 13.128Z" fill="#262C2C"/>
</svg>
