
                  <svg
                    xmlns="http://www.w3.org/2000/svg"
                    width="56"
                    height="62"
                    viewBox="0 0 56 62"
                    fill="none"
                  >
                    <path
                      d="M14.88 4.06738C17.84 4.06738 20.2 5.14738 21.96 7.30738C23.8 9.38738 24.72 12.1474 24.72 15.5874C24.72 20.0674 23.4 24.2674 20.76 28.1874C18.12 32.0274 14.84 34.9074 10.92 36.8274L10.2 35.3874C11.88 34.1074 13.36 32.4674 14.64 30.4674C15.92 28.4674 16.84 25.9874 17.4 23.0274L14.88 22.4274C12.08 21.7874 9.88 20.6274 8.28 18.9474C6.76 17.1874 6 15.1074 6 12.7074C6 10.1474 6.84 8.06738 8.52 6.46738C10.28 4.86738 12.4 4.06738 14.88 4.06738ZM40.2 4.06738C43.16 4.06738 45.52 5.14738 47.28 7.30738C49.12 9.38738 50.04 12.1474 50.04 15.5874C50.04 20.0674 48.72 24.2674 46.08 28.1874C43.44 32.0274 40.16 34.9074 36.24 36.8274L35.52 35.3874C37.2 34.1074 38.68 32.4674 39.96 30.4674C41.24 28.4674 42.16 25.9874 42.72 23.0274L40.2 22.4274C37.4 21.7874 35.2 20.6274 33.6 18.9474C32.08 17.1874 31.32 15.1074 31.32 12.7074C31.32 10.1474 32.16 8.06738 33.84 6.46738C35.6 4.86738 37.72 4.06738 40.2 4.06738Z"
                      fill="#0C0D0D"
                    />
                  </svg>