<svg
                    xmlns="http://www.w3.org/2000/svg"
                    width="56"
                    height="61"
                    viewBox="0 0 56 61"
                    fill="none"
                  >
                    <path
                      d="M15.84 44.76C12.88 44.76 10.48 43.72 8.64 41.64C6.88 39.48 6 36.68 6 33.24C6 28.76 7.32 24.6 9.96 20.76C12.6 16.84 15.88 13.92 19.8 12L20.52 13.44C18.84 14.72 17.36 16.36 16.08 18.36C14.8 20.36 13.88 22.84 13.32 25.8L15.84 26.4C18.64 27.04 20.8 28.24 22.32 30C23.92 31.68 24.72 33.72 24.72 36.12C24.72 38.68 23.84 40.76 22.08 42.36C20.4 43.96 18.32 44.76 15.84 44.76ZM41.16 44.76C38.2 44.76 35.8 43.72 33.96 41.64C32.2 39.48 31.32 36.68 31.32 33.24C31.32 28.76 32.64 24.6 35.28 20.76C37.92 16.84 41.2 13.92 45.12 12L45.84 13.44C44.16 14.72 42.68 16.36 41.4 18.36C40.12 20.36 39.2 22.84 38.64 25.8L41.16 26.4C43.96 27.04 46.12 28.24 47.64 30C49.24 31.68 50.04 33.72 50.04 36.12C50.04 38.68 49.16 40.76 47.4 42.36C45.72 43.96 43.64 44.76 41.16 44.76Z"
                      fill="#0C0D0D"
                    />
                  </svg>