<svg xmlns="http://www.w3.org/2000/svg" width="56" height="56" viewBox="0 0 56 56" fill="none">
  <path d="M14.88 12C17.84 12 20.2 13.08 21.96 15.24C23.8 17.32 24.72 20.08 24.72 23.52C24.72 28 23.4 32.2 20.76 36.12C18.12 39.96 14.84 42.84 10.92 44.76L10.2 43.32C11.88 42.04 13.36 40.4 14.64 38.4C15.92 36.4 16.84 33.92 17.4 30.96L14.88 30.36C12.08 29.72 9.88 28.56 8.28 26.88C6.76 25.12 6 23.04 6 20.64C6 18.08 6.84 16 8.52 14.4C10.28 12.8 12.4 12 14.88 12ZM40.2 12C43.16 12 45.52 13.08 47.28 15.24C49.12 17.32 50.04 20.08 50.04 23.52C50.04 28 48.72 32.2 46.08 36.12C43.44 39.96 40.16 42.84 36.24 44.76L35.52 43.32C37.2 42.04 38.68 40.4 39.96 38.4C41.24 36.4 42.16 33.92 42.72 30.96L40.2 30.36C37.4 29.72 35.2 28.56 33.6 26.88C32.08 25.12 31.32 23.04 31.32 20.64C31.32 18.08 32.16 16 33.84 14.4C35.6 12.8 37.72 12 40.2 12Z" fill="white"/>
</svg>