<svg width="48" height="30" viewBox="0 0 48 30" fill="none" xmlns="http://www.w3.org/2000/svg">
<path d="M46.7071 15.7071C47.0976 15.3166 47.0976 14.6834 46.7071 14.2929L40.3431 7.92893C39.9526 7.53841 39.3195 7.53841 38.9289 7.92893C38.5384 8.31946 38.5384 8.95262 38.9289 9.34315L44.5858 15L38.9289 20.6569C38.5384 21.0474 38.5384 21.6805 38.9289 22.0711C39.3195 22.4616 39.9526 22.4616 40.3431 22.0711L46.7071 15.7071ZM0 16H1.91667V14H0V16ZM5.75 16H9.58333V14H5.75V16ZM13.4167 16H17.25V14H13.4167V16ZM21.0833 16H24.9167V14H21.0833V16ZM28.75 16H32.5833V14H28.75V16ZM36.4167 16H40.25V14H36.4167V16ZM44.0833 16H46V14H44.0833V16ZM47.4142 16.4142C48.1953 15.6332 48.1953 14.3668 47.4142 13.5858L34.6863 0.857864C33.9052 0.0768156 32.6389 0.0768156 31.8579 0.857864C31.0768 1.63891 31.0768 2.90524 31.8579 3.68629L43.1716 15L31.8579 26.3137C31.0768 27.0948 31.0768 28.3611 31.8579 29.1421C32.6389 29.9232 33.9052 29.9232 34.6863 29.1421L47.4142 16.4142ZM0 17H1.91667V13H0V17ZM5.75 17H9.58333V13H5.75V17ZM13.4167 17H17.25V13H13.4167V17ZM21.0833 17H24.9167V13H21.0833V17ZM28.75 17H32.5833V13H28.75V17ZM36.4167 17H40.25V13H36.4167V17ZM44.0833 17H46V13H44.0833V17Z" fill="#ACB4B3"/>
</svg>
