<svg width="109" height="112" viewBox="0 0 109 112" fill="none" xmlns="http://www.w3.org/2000/svg">
<path d="M108.344 6.51855L92.2966 7.72476e-05L94.675 17.1565L108.344 6.51855ZM6 105.397V106.897C20.4666 106.897 30.6172 101.488 38.3378 93.1651C45.9891 84.9169 51.2234 73.8366 56.0239 62.5609C60.8626 51.1955 65.2549 39.6543 71.2423 30.0511C77.1993 20.4966 84.6228 13.0588 95.4005 9.80903L94.9675 8.3729L94.5344 6.93676C82.811 10.4717 74.875 18.5543 68.6966 28.4639C62.5485 38.3248 58.0295 50.1914 53.2636 61.3858C48.4595 72.6699 43.3958 83.3013 36.1384 91.1248C28.9501 98.8738 19.5812 103.897 6 103.897V105.397Z" fill="#DC511A"/>
<circle cx="6" cy="105.396" r="4.5" fill="white" stroke="#DC511A" stroke-width="3"/>
</svg>
