<svg width="288" height="119" viewBox="0 0 288 119" fill="none" xmlns="http://www.w3.org/2000/svg">
<path d="M288 110L273.186 101.025L272.82 118.342L288 110ZM7.05273 6V7.5C43.8883 7.5 70.2828 13.5787 91.3078 22.7416C112.348 31.9111 128.092 44.2013 143.646 56.7865C159.177 69.3533 174.551 82.2445 194.695 92.334C214.871 102.44 239.778 109.714 274.44 111.214L274.505 109.715L274.569 108.217C240.293 106.734 215.805 99.552 196.038 89.6517C176.24 79.7353 161.125 67.0705 145.533 54.4543C129.963 41.8564 113.949 29.3363 92.5064 19.9914C71.0486 10.6399 44.2366 4.5 7.05273 4.5V6Z" fill="#DC511A"/>
<path d="M7.05273 1.5C10.3562 1.5 12.6064 3.733 12.6064 6C12.6064 8.267 10.3562 10.5 7.05273 10.5C3.74944 10.4999 1.5 8.26692 1.5 6C1.5 3.73308 3.74944 1.50015 7.05273 1.5Z" fill="white" stroke="#DC511A" stroke-width="3"/>
</svg>
