<svg width="96" height="22" viewBox="0 0 96 22" fill="none" xmlns="http://www.w3.org/2000/svg">
<path d="M17.4344 14.8108V4.9602H24.8224V6.61689H19.4941V9.06461H23.6881V10.6467H19.4941V13.1541H25.0313V14.8108H17.4344ZM30.924 10.0497C30.924 9.62182 30.7996 9.28849 30.5508 9.04969C30.312 8.81088 29.9936 8.69148 29.5956 8.69148C29.2275 8.69148 28.9041 8.78601 28.6255 8.97506C28.3469 9.16411 28.1429 9.47754 28.0136 9.91534L26.2673 9.37804C26.4365 8.72133 26.8046 8.19398 27.3718 7.79597C27.9489 7.39797 28.72 7.19897 29.6852 7.19897C30.3419 7.19897 30.914 7.30344 31.4016 7.5124C31.8891 7.7114 32.2672 8.01488 32.5359 8.42283C32.8145 8.83078 32.9538 9.34321 32.9538 9.96012V12.9899C32.9538 13.368 33.1329 13.5571 33.4911 13.5571C33.6602 13.5571 33.8194 13.5322 33.9687 13.4825L33.8493 14.7511C33.5906 14.8804 33.2672 14.9451 32.8792 14.9451C32.5309 14.9451 32.2175 14.8854 31.9389 14.766C31.6603 14.6466 31.4414 14.4675 31.2822 14.2287C31.123 13.98 31.0434 13.6715 31.0434 13.3034V13.2437L31.4016 13.184C31.3419 13.5621 31.1777 13.8854 30.909 14.1541C30.6404 14.4128 30.312 14.6118 29.924 14.7511C29.5459 14.8904 29.1529 14.96 28.7449 14.96C28.2374 14.96 27.7996 14.8854 27.4315 14.7362C27.0633 14.577 26.7798 14.3481 26.5808 14.0496C26.3818 13.7511 26.2823 13.383 26.2823 12.9451C26.2823 12.3879 26.4614 11.9352 26.8196 11.587C27.1778 11.2288 27.6902 10.985 28.3568 10.8556L31.1628 10.2885L31.1478 11.5571L29.3568 11.9153C29.0185 11.985 28.7598 12.0795 28.5807 12.1989C28.4116 12.3083 28.327 12.4924 28.327 12.7511C28.327 12.9999 28.4165 13.1889 28.5956 13.3183C28.7847 13.4476 29.0086 13.5123 29.2673 13.5123C29.4762 13.5123 29.6802 13.4874 29.8792 13.4377C30.0782 13.3879 30.2573 13.3083 30.4165 13.1989C30.5757 13.0894 30.7001 12.9402 30.7896 12.7511C30.8792 12.5621 30.924 12.3332 30.924 12.0646V10.0497ZM38.2256 14.96C37.4694 14.96 36.7779 14.8257 36.151 14.5571C35.5341 14.2884 35.0317 13.9103 34.6436 13.4228L35.8227 12.2287C36.0615 12.5869 36.3799 12.8805 36.7779 13.1093C37.1759 13.3382 37.6485 13.4526 38.1958 13.4526C38.5838 13.4526 38.8923 13.3979 39.1211 13.2884C39.3599 13.169 39.4793 12.9849 39.4793 12.7362C39.4793 12.577 39.4246 12.4427 39.3152 12.3332C39.2057 12.2138 38.9868 12.1193 38.6585 12.0496L37.345 11.781C36.4794 11.6019 35.8625 11.3332 35.4943 10.975C35.1361 10.6069 34.957 10.1342 34.957 9.55714C34.957 9.14919 35.0764 8.76611 35.3152 8.4079C35.564 8.0497 35.9321 7.76115 36.4197 7.54225C36.9072 7.31339 37.5142 7.19897 38.2406 7.19897C38.9868 7.19897 39.6336 7.31837 40.1808 7.55717C40.738 7.78602 41.1758 8.1293 41.4942 8.58701L40.2704 9.78102C40.0515 9.43276 39.7629 9.16909 39.4047 8.98999C39.0565 8.80093 38.6883 8.70641 38.3003 8.70641C38.0217 8.70641 37.7829 8.73626 37.5839 8.79596C37.3848 8.85566 37.2356 8.94023 37.1361 9.04969C37.0366 9.14919 36.9868 9.27854 36.9868 9.43774C36.9868 9.59694 37.0565 9.73624 37.1958 9.85564C37.3351 9.96509 37.5888 10.0596 37.957 10.1392L39.4793 10.4526C40.2157 10.6019 40.743 10.8556 41.0614 11.2138C41.3798 11.5621 41.539 11.985 41.539 12.4825C41.539 12.9601 41.4097 13.3879 41.151 13.766C40.9022 14.1342 40.5291 14.4277 40.0316 14.6466C39.544 14.8556 38.942 14.96 38.2256 14.96ZM49.9075 7.34822L46.8926 15.2735C46.6538 15.9501 46.3851 16.4874 46.0866 16.8854C45.7981 17.2834 45.4598 17.5719 45.0717 17.751C44.6936 17.9301 44.2409 18.0197 43.7135 18.0197C43.3255 18.0197 42.9673 17.9699 42.6389 17.8704C42.3205 17.7809 42.0419 17.6615 41.8031 17.5122L42.2359 16.0347C42.425 16.1839 42.624 16.2884 42.833 16.3481C43.0419 16.4177 43.2807 16.4526 43.5494 16.4526C43.828 16.4526 44.0668 16.3929 44.2658 16.2735C44.4747 16.1541 44.6488 15.9153 44.7881 15.557L45.0419 14.9153L44.221 12.975L41.9374 7.34822H44.2061L45.624 11.8258L46.012 13.3183L46.4747 11.7362L47.8329 7.34822H49.9075ZM59.8146 17.9451V7.34822H61.6504L61.7847 9.72132L61.531 9.45266C61.6206 9.01486 61.7847 8.62681 62.0235 8.2885C62.2723 7.9502 62.5857 7.68652 62.9638 7.49747C63.3419 7.29847 63.7648 7.19897 64.2325 7.19897C64.8394 7.19897 65.3817 7.35319 65.8593 7.66165C66.3369 7.9701 66.71 8.41288 66.9787 8.98999C67.2573 9.55714 67.3966 10.2487 67.3966 11.0646C67.3966 11.8805 67.2573 12.582 66.9787 13.169C66.7001 13.7461 66.317 14.1889 65.8294 14.4974C65.3518 14.8058 64.8046 14.96 64.1877 14.96C63.531 14.96 62.9837 14.776 62.5459 14.4078C62.1181 14.0397 61.8245 13.577 61.6653 13.0198L61.8594 12.7063V17.9451H59.8146ZM63.5907 13.3929C64.1379 13.3929 64.5658 13.1989 64.8742 12.8108C65.1926 12.4128 65.3518 11.8357 65.3518 11.0795C65.3518 10.3233 65.1976 9.75117 64.8892 9.36311C64.5907 8.96511 64.1678 8.76611 63.6205 8.76611C63.2723 8.76611 62.9638 8.86063 62.6952 9.04969C62.4365 9.22879 62.2325 9.49246 62.0832 9.84072C61.934 10.179 61.8594 10.592 61.8594 11.0795C61.8594 11.5571 61.929 11.97 62.0683 12.3183C62.2076 12.6665 62.4066 12.9352 62.6653 13.1242C62.934 13.3034 63.2424 13.3929 63.5907 13.3929ZM72.6346 14.96C71.8486 14.96 71.162 14.8058 70.5749 14.4974C69.9978 14.1889 69.5501 13.7461 69.2317 13.169C68.9133 12.5919 68.7541 11.8954 68.7541 11.0795C68.7541 10.2636 68.9133 9.56709 69.2317 8.98999C69.5501 8.41288 69.9929 7.9701 70.56 7.66165C71.1371 7.35319 71.7938 7.19897 72.5301 7.19897C73.2863 7.19897 73.9281 7.35319 74.4555 7.66165C74.9828 7.96015 75.3858 8.37308 75.6644 8.90043C75.943 9.41784 76.0823 10.0099 76.0823 10.6765C76.0823 10.8755 76.0773 11.0646 76.0674 11.2437C76.0574 11.4228 76.0425 11.582 76.0226 11.7213H70.0675V10.3034H75.1271L74.1421 10.6616C74.1421 10.0347 73.9978 9.55217 73.7092 9.21386C73.4306 8.87556 73.0326 8.70641 72.5152 8.70641C72.1371 8.70641 71.8088 8.79596 71.5302 8.97506C71.2615 9.15416 71.0575 9.42281 70.9182 9.78102C70.7789 10.1293 70.7093 10.5721 70.7093 11.1094C70.7093 11.6367 70.7839 12.0745 70.9331 12.4228C71.0923 12.7611 71.3113 13.0148 71.5899 13.184C71.8784 13.3531 72.2217 13.4377 72.6197 13.4377C73.0575 13.4377 73.4107 13.3531 73.6794 13.184C73.948 13.0148 74.157 12.781 74.3062 12.4825L75.9331 13.1093C75.7739 13.4974 75.5301 13.8307 75.2017 14.1093C74.8833 14.3879 74.5003 14.6018 74.0525 14.7511C73.6147 14.8904 73.1421 14.96 72.6346 14.96ZM77.8152 14.8108V7.34822H79.6509L79.7703 9.58699L79.5166 9.34819C79.636 8.86063 79.8251 8.45766 80.0838 8.13925C80.3425 7.82085 80.6559 7.58702 81.0241 7.43777C81.4022 7.27857 81.8151 7.19897 82.2628 7.19897C82.7803 7.19897 83.238 7.29847 83.636 7.49747C84.0439 7.69647 84.3623 7.99995 84.5912 8.4079C84.83 8.80591 84.9494 9.30839 84.9494 9.91534V14.8108H82.9046V10.4974C82.9046 9.86062 82.7803 9.42281 82.5315 9.18401C82.2827 8.93526 81.9594 8.81088 81.5614 8.81088C81.2828 8.81088 81.0091 8.88053 80.7405 9.01984C80.4818 9.14919 80.2679 9.36311 80.0987 9.66162C79.9395 9.96012 79.8599 10.3581 79.8599 10.8556V14.8108H77.8152ZM89.8768 14.96C89.2599 14.96 88.7076 14.8058 88.2201 14.4974C87.7425 14.1889 87.3644 13.7461 87.0858 13.169C86.8171 12.5919 86.6828 11.9004 86.6828 11.0944C86.6828 10.2686 86.8271 9.56709 87.1156 8.98999C87.4042 8.40293 87.7922 7.96015 88.2798 7.66165C88.7773 7.35319 89.3345 7.19897 89.9514 7.19897C90.6081 7.19897 91.1504 7.38802 91.5782 7.76612C92.0061 8.14423 92.2847 8.63178 92.414 9.22879L92.22 9.46759V4.07961H94.2648V14.8108H92.429L92.2946 12.5422L92.5484 12.6616C92.4787 13.1292 92.3195 13.5372 92.0708 13.8854C91.822 14.2237 91.5086 14.4874 91.1305 14.6765C90.7524 14.8655 90.3345 14.96 89.8768 14.96ZM90.4738 13.3929C90.832 13.3929 91.1404 13.3034 91.3991 13.1242C91.6578 12.9352 91.8568 12.6616 91.9961 12.3034C92.1454 11.9452 92.22 11.5173 92.22 11.0198C92.22 10.5422 92.1504 10.1392 92.0111 9.81087C91.8718 9.47256 91.6728 9.21386 91.4141 9.03476C91.1554 8.85566 90.8519 8.76611 90.5036 8.76611C89.9464 8.76611 89.5086 8.96511 89.1902 9.36311C88.8818 9.75117 88.7275 10.3233 88.7275 11.0795C88.7275 11.8357 88.8818 12.4128 89.1902 12.8108C89.4987 13.1989 89.9265 13.3929 90.4738 13.3929Z" fill="#2F3434"/>
<path opacity="0.9" d="M54.4075 4.77394L50.6793 8.70623C50.6793 8.70623 50.3241 9.03626 50.2021 9.31143C50.1143 9.50945 50.0861 9.63436 50.0713 9.85047C50.05 10.1611 50.0794 10.3534 50.2113 10.6355C50.4082 11.0565 50.6296 11.2514 51.0918 11.4363C51.0918 11.4363 51.7923 11.7794 52.2705 11.8985C52.9564 12.0694 53.3716 12.2533 54.074 12.1733C54.5524 12.1188 54.817 11.9944 55.2321 11.7504C55.3782 11.6645 55.5753 11.5057 55.5753 11.5057L55.5915 11.49L56.734 6.78044L56.8854 6.15628C56.8854 6.15628 56.913 5.973 56.8854 5.85335C56.852 5.7085 56.8572 5.60797 56.7879 5.46048C56.7262 5.32915 56.6955 5.27559 56.6261 5.13693C56.5499 4.98437 56.3959 4.78683 56.2332 4.68151C56.0207 4.54395 55.5866 4.36773 55.4012 4.35797C55.2159 4.3482 55.2626 4.33485 55.0777 4.38107C54.8102 4.44795 54.4075 4.77394 54.4075 4.77394Z" fill="url(#paint0_linear_3317_985)"/>
<path opacity="0.9" d="M53.7142 16.8077L57.4324 12.8732C57.4324 12.8732 57.7877 12.5431 57.9096 12.268C57.9974 12.0699 58.0256 11.945 58.0404 11.7289C58.0617 11.4182 58.0323 11.226 57.9004 10.9439C57.7035 10.5229 57.4821 10.3279 57.0199 10.1431C57.0199 10.1431 56.3194 9.79995 55.8412 9.68084C55.1553 9.50998 54.7401 9.32609 54.0377 9.40609C53.5593 9.46058 53.2947 9.58496 52.8796 9.82898C52.7335 9.91487 52.5364 10.0737 52.5364 10.0737L52.5202 10.0894L51.3777 14.7989L51.2263 15.4231C51.2263 15.4231 51.2433 15.6147 51.2709 15.7343C51.3043 15.8792 51.3306 15.9601 51.3938 16.0946C51.4555 16.2259 51.4967 16.2985 51.5872 16.4119C51.7081 16.5633 51.795 16.6368 51.9577 16.7421C52.1702 16.8796 52.3759 16.9688 52.5612 16.9786C52.7466 16.9884 52.8508 17.0187 53.0358 17.0036C53.3107 16.9812 53.7142 16.8077 53.7142 16.8077Z" fill="url(#paint1_linear_3317_985)"/>
<path opacity="0.9" d="M6.89281 1.96959L1.44216 7.71862C1.44216 7.71862 0.922758 8.20114 0.744404 8.60343C0.616047 8.89295 0.574888 9.07556 0.553223 9.39152C0.52208 9.84571 0.565077 10.1268 0.757933 10.5392C1.04582 11.1548 1.36951 11.4397 2.04528 11.7101C2.04528 11.7101 3.06939 12.2117 3.76848 12.3858C4.77127 12.6356 5.37837 12.9045 6.40516 12.7875C7.10459 12.7078 7.49154 12.526 8.0984 12.1692C8.31201 12.0437 8.60006 11.8114 8.60006 11.8114L8.62387 11.7885L10.2942 4.90311L10.5156 3.99059C10.5156 3.99059 10.5559 3.72262 10.5156 3.54769C10.4667 3.33593 10.4743 3.18895 10.373 2.97331C10.2827 2.78131 10.2378 2.70301 10.1365 2.50029C10.0249 2.27723 9.79983 1.98844 9.56196 1.83446C9.25128 1.63335 8.61658 1.37571 8.34562 1.36143C8.07465 1.34716 8.14289 1.32763 7.87259 1.39521C7.48148 1.49299 6.89281 1.96959 6.89281 1.96959Z" fill="url(#paint2_linear_3317_985)"/>
<path opacity="0.9" d="M5.87927 19.5632L11.3153 13.8109C11.3153 13.8109 11.8347 13.3284 12.0131 12.9261C12.1414 12.6366 12.1826 12.454 12.2042 12.138C12.2354 11.6838 12.1924 11.4027 11.9995 10.9904C11.7116 10.3748 11.3879 10.0898 10.7122 9.81946C10.7122 9.81946 9.68807 9.31785 8.98897 9.1437C7.98619 8.89391 7.37908 8.62506 6.3523 8.74202C5.65287 8.82169 5.26591 9.00353 4.65906 9.36028C4.44545 9.48586 4.1574 9.71809 4.1574 9.71809L4.13359 9.74097L2.46327 16.6264L2.2419 17.5389C2.2419 17.5389 2.26684 17.819 2.3072 17.994C2.35605 18.2057 2.39441 18.324 2.48686 18.5207C2.57711 18.7127 2.63724 18.8187 2.76961 18.9845C2.9464 19.206 3.07342 19.3133 3.31129 19.4673C3.62197 19.6684 3.92267 19.7988 4.19363 19.8131C4.46459 19.8274 4.61703 19.8717 4.88747 19.8496C5.28929 19.8169 5.87927 19.5632 5.87927 19.5632Z" fill="url(#paint3_linear_3317_985)"/>
<defs>
<linearGradient id="paint0_linear_3317_985" x1="56.9819" y1="2.78508" x2="51.9989" y2="13.1719" gradientUnits="userSpaceOnUse">
<stop stop-color="#2F3434"/>
<stop offset="1" stop-color="#2F3434"/>
</linearGradient>
<linearGradient id="paint1_linear_3317_985" x1="51.1294" y1="18.7941" x2="56.1125" y2="8.40732" gradientUnits="userSpaceOnUse">
<stop stop-color="#2F3434"/>
<stop offset="1" stop-color="#2F3434"/>
</linearGradient>
<linearGradient id="paint2_linear_3317_985" x1="10.6566" y1="-0.938145" x2="3.37139" y2="14.2475" gradientUnits="userSpaceOnUse">
<stop stop-color="#2F3434"/>
<stop offset="1" stop-color="#2F3434"/>
</linearGradient>
<linearGradient id="paint3_linear_3317_985" x1="2.10032" y1="22.4674" x2="9.38555" y2="7.28181" gradientUnits="userSpaceOnUse">
<stop stop-color="#2F3434"/>
<stop offset="1" stop-color="#2F3434"/>
</linearGradient>
</defs>
</svg>
